<?xml version="1.0" encoding="UTF-8" standalone="no"?>
<!-- Created with Inkscape (http://www.inkscape.org/) -->

<svg
   width="210mm"
   height="297mm"
   viewBox="0 0 210 297"
   version="1.1"
   id="svg3221"
   inkscape:version="1.2 (dc2aedaf03, 2022-05-15)"
   xml:space="preserve"
   sodipodi:docname="Gavo.svg"
   inkscape:export-filename="Lances of Siez.png"
   inkscape:export-xdpi="96"
   inkscape:export-ydpi="96"
   xmlns:inkscape="http://www.inkscape.org/namespaces/inkscape"
   xmlns:sodipodi="http://sodipodi.sourceforge.net/DTD/sodipodi-0.dtd"
   xmlns="http://www.w3.org/2000/svg"
   xmlns:svg="http://www.w3.org/2000/svg"><sodipodi:namedview
     id="namedview3223"
     pagecolor="#ffffff"
     bordercolor="#000000"
     borderopacity="0.25"
     inkscape:showpageshadow="2"
     inkscape:pageopacity="0.0"
     inkscape:pagecheckerboard="0"
     inkscape:deskcolor="#d1d1d1"
     inkscape:document-units="mm"
     showgrid="false"
     inkscape:zoom="1.42"
     inkscape:cx="355.28169"
     inkscape:cy="616.19718"
     inkscape:window-width="1920"
     inkscape:window-height="1017"
     inkscape:window-x="-8"
     inkscape:window-y="-8"
     inkscape:window-maximized="1"
     inkscape:current-layer="g28951" /><defs
     id="defs3218"><inkscape:path-effect
       effect="bspline"
       id="path-effect23541"
       is_visible="true"
       lpeversion="1"
       weight="33.333333"
       steps="2"
       helper_size="0"
       apply_no_weight="true"
       apply_with_weight="true"
       only_selected="false" /><inkscape:path-effect
       effect="bspline"
       id="path-effect23427"
       is_visible="true"
       lpeversion="1"
       weight="33.333333"
       steps="2"
       helper_size="0"
       apply_no_weight="true"
       apply_with_weight="true"
       only_selected="false" /><inkscape:path-effect
       effect="bspline"
       id="path-effect23381"
       is_visible="true"
       lpeversion="1"
       weight="33.333333"
       steps="2"
       helper_size="0"
       apply_no_weight="true"
       apply_with_weight="true"
       only_selected="false" /><inkscape:path-effect
       effect="bspline"
       id="path-effect23335"
       is_visible="true"
       lpeversion="1"
       weight="33.333333"
       steps="2"
       helper_size="0"
       apply_no_weight="true"
       apply_with_weight="true"
       only_selected="false" /><inkscape:path-effect
       effect="bspline"
       id="path-effect23289"
       is_visible="true"
       lpeversion="1"
       weight="33.333333"
       steps="2"
       helper_size="0"
       apply_no_weight="true"
       apply_with_weight="true"
       only_selected="false" /><inkscape:path-effect
       effect="bspline"
       id="path-effect23243"
       is_visible="true"
       lpeversion="1"
       weight="33.333333"
       steps="2"
       helper_size="0"
       apply_no_weight="true"
       apply_with_weight="true"
       only_selected="false" /><inkscape:path-effect
       effect="bspline"
       id="path-effect23197"
       is_visible="true"
       lpeversion="1"
       weight="33.333333"
       steps="2"
       helper_size="0"
       apply_no_weight="true"
       apply_with_weight="true"
       only_selected="false" /><inkscape:path-effect
       effect="bspline"
       id="path-effect23151"
       is_visible="true"
       lpeversion="1"
       weight="33.333333"
       steps="2"
       helper_size="0"
       apply_no_weight="true"
       apply_with_weight="true"
       only_selected="false" /><inkscape:path-effect
       effect="bspline"
       id="path-effect23105"
       is_visible="true"
       lpeversion="1"
       weight="33.333333"
       steps="2"
       helper_size="0"
       apply_no_weight="true"
       apply_with_weight="true"
       only_selected="false" /><inkscape:path-effect
       effect="bspline"
       id="path-effect23059"
       is_visible="true"
       lpeversion="1"
       weight="33.333333"
       steps="2"
       helper_size="0"
       apply_no_weight="true"
       apply_with_weight="true"
       only_selected="false" /><inkscape:path-effect
       effect="bspline"
       id="path-effect22959"
       is_visible="true"
       lpeversion="1"
       weight="33.333333"
       steps="2"
       helper_size="0"
       apply_no_weight="true"
       apply_with_weight="true"
       only_selected="false" /><inkscape:path-effect
       effect="bspline"
       id="path-effect22805"
       is_visible="true"
       lpeversion="1"
       weight="33.333333"
       steps="2"
       helper_size="0"
       apply_no_weight="true"
       apply_with_weight="true"
       only_selected="false" /><inkscape:path-effect
       effect="bspline"
       id="path-effect22671"
       is_visible="true"
       lpeversion="1"
       weight="33.333333"
       steps="2"
       helper_size="0"
       apply_no_weight="true"
       apply_with_weight="true"
       only_selected="false" /><inkscape:path-effect
       effect="bspline"
       id="path-effect22625"
       is_visible="true"
       lpeversion="1"
       weight="33.333333"
       steps="2"
       helper_size="0"
       apply_no_weight="true"
       apply_with_weight="true"
       only_selected="false" /><inkscape:path-effect
       effect="bspline"
       id="path-effect22579"
       is_visible="true"
       lpeversion="1"
       weight="33.333333"
       steps="2"
       helper_size="0"
       apply_no_weight="true"
       apply_with_weight="true"
       only_selected="false" /><inkscape:path-effect
       effect="bspline"
       id="path-effect22533"
       is_visible="true"
       lpeversion="1"
       weight="33.333333"
       steps="2"
       helper_size="0"
       apply_no_weight="true"
       apply_with_weight="true"
       only_selected="false" /><inkscape:path-effect
       effect="bspline"
       id="path-effect10020"
       is_visible="true"
       lpeversion="1"
       weight="33.333333"
       steps="2"
       helper_size="0"
       apply_no_weight="true"
       apply_with_weight="true"
       only_selected="false" /><inkscape:path-effect
       effect="bspline"
       id="path-effect10020-8"
       is_visible="true"
       lpeversion="1"
       weight="33.333333"
       steps="2"
       helper_size="0"
       apply_no_weight="true"
       apply_with_weight="true"
       only_selected="false" /><inkscape:path-effect
       effect="bspline"
       id="path-effect10020-7"
       is_visible="true"
       lpeversion="1"
       weight="33.333333"
       steps="2"
       helper_size="0"
       apply_no_weight="true"
       apply_with_weight="true"
       only_selected="false" /><inkscape:path-effect
       effect="bspline"
       id="path-effect10020-81"
       is_visible="true"
       lpeversion="1"
       weight="33.333333"
       steps="2"
       helper_size="0"
       apply_no_weight="true"
       apply_with_weight="true"
       only_selected="false" /><inkscape:path-effect
       effect="bspline"
       id="path-effect10020-81-1"
       is_visible="true"
       lpeversion="1"
       weight="33.333333"
       steps="2"
       helper_size="0"
       apply_no_weight="true"
       apply_with_weight="true"
       only_selected="false" /><inkscape:path-effect
       effect="bspline"
       id="path-effect10020-81-1-3"
       is_visible="true"
       lpeversion="1"
       weight="33.333333"
       steps="2"
       helper_size="0"
       apply_no_weight="true"
       apply_with_weight="true"
       only_selected="false" /><inkscape:path-effect
       effect="bspline"
       id="path-effect10020-81-7"
       is_visible="true"
       lpeversion="1"
       weight="33.333333"
       steps="2"
       helper_size="0"
       apply_no_weight="true"
       apply_with_weight="true"
       only_selected="false" /><inkscape:path-effect
       effect="bspline"
       id="path-effect10020-6"
       is_visible="true"
       lpeversion="1"
       weight="33.333333"
       steps="2"
       helper_size="0"
       apply_no_weight="true"
       apply_with_weight="true"
       only_selected="false" /><inkscape:path-effect
       effect="bspline"
       id="path-effect10020-81-1-3-0"
       is_visible="true"
       lpeversion="1"
       weight="33.333333"
       steps="2"
       helper_size="0"
       apply_no_weight="true"
       apply_with_weight="true"
       only_selected="false" /><inkscape:path-effect
       effect="bspline"
       id="path-effect10020-81-7-8"
       is_visible="true"
       lpeversion="1"
       weight="33.333333"
       steps="2"
       helper_size="0"
       apply_no_weight="true"
       apply_with_weight="true"
       only_selected="false" /><inkscape:path-effect
       effect="bspline"
       id="path-effect10020-81-1-3-2"
       is_visible="true"
       lpeversion="1"
       weight="33.333333"
       steps="2"
       helper_size="0"
       apply_no_weight="true"
       apply_with_weight="true"
       only_selected="false" /><inkscape:path-effect
       effect="bspline"
       id="path-effect23427-9"
       is_visible="true"
       lpeversion="1"
       weight="33.333333"
       steps="2"
       helper_size="0"
       apply_no_weight="true"
       apply_with_weight="true"
       only_selected="false" /><inkscape:path-effect
       effect="bspline"
       id="path-effect23541-9"
       is_visible="true"
       lpeversion="1"
       weight="33.333333"
       steps="2"
       helper_size="0"
       apply_no_weight="true"
       apply_with_weight="true"
       only_selected="false" /></defs><g
     inkscape:label="Laag 1"
     inkscape:groupmode="layer"
     id="layer1"><circle
       style="fill:#f9a602;fill-opacity:1;stroke:#ffffff;stroke-width:5;stroke-linecap:square;stroke-linejoin:round;stroke-dasharray:none;stroke-opacity:1"
       id="path7416"
       cx="105"
       cy="148.5"
       r="64.580643"
       inkscape:export-filename="Gavo.png"
       inkscape:export-xdpi="94.662178"
       inkscape:export-ydpi="94.662178" /><path
       style="opacity:1;fill:#ffffff;fill-opacity:1;stroke:#323232;stroke-width:0;stroke-linecap:square;stroke-linejoin:round;stroke-dasharray:none;stroke-opacity:1"
       d="m 135.98082,252.55035 c -0.11531,0.418 -0.34588,1.25383 -0.50439,2.11852 -0.15851,0.86469 -0.24498,1.75815 -0.27377,2.4499 -0.0288,0.69174 3e-5,1.1817 0.10089,0.99432 0.10085,-0.18739 0.27378,-1.05202 0.57641,-1.78706 0.30264,-0.73504 0.73496,-1.34029 0.86475,-1.83012 0.12978,-0.48984 -0.0431,-0.86452 -0.20168,-1.2392 -0.15853,-0.37469 -0.30264,-0.74935 -0.37475,-0.93686 -0.0721,-0.1875 -0.0722,-0.1875 -0.18746,0.2305 z"
       id="path22623"
       inkscape:path-effect="#path-effect22625"
       inkscape:original-d="m 136.09613,252.13235 c -0.23031,0.83609 -0.46088,1.67192 -0.69172,2.50749 -0.0862,0.89375 -0.17267,1.78721 -0.2594,2.68042 0.0291,0.49024 0.0579,0.9802 0.0865,1.46991 0.1732,-0.86441 0.34612,-1.72904 0.51879,-2.59396 0.4326,-0.605 0.86492,-1.21025 1.29698,-1.81577 -0.17267,-0.37442 -0.3456,-0.7491 -0.51879,-1.12404 -0.14385,-0.37443 -0.28795,-0.7491 -0.43233,-1.12405 z" /><path
       style="opacity:1;fill:#ffffff;fill-opacity:1;stroke:#ffffff;stroke-width:0;stroke-linecap:square;stroke-linejoin:round;stroke-dasharray:none;stroke-opacity:1"
       d="m 138.30718,260.84501 c -0.0941,0.20067 -0.26976,0.76522 -0.33872,1.34237 -0.069,0.57716 -0.0313,1.16677 0.0691,1.77525 0.10039,0.60848 0.26348,1.23575 0.42029,1.89439 0.15682,0.65863 0.30736,1.34861 0.3826,2.00723 0.0752,0.65862 0.0752,1.28589 0.1317,1.54294 0.0565,0.25704 0.16935,0.14414 0.26343,-0.23838 0.0941,-0.38252 0.16935,-1.03488 0.13805,-1.58684 -0.0313,-0.55196 -0.16931,-1.00361 -0.30105,-1.54934 -0.13174,-0.54573 -0.2572,-1.18555 -0.37011,-1.77519 -0.11291,-0.58963 -0.21327,-1.12908 -0.25722,-1.66856 -0.0439,-0.53949 -0.0314,-1.07893 -0.0314,-1.43019 2e-5,-0.35126 -0.0125,-0.51434 -0.10664,-0.31368 z"
       id="path22957"
       inkscape:path-effect="#path-effect22959"
       inkscape:original-d="m 138.38875,260.48097 c -0.17537,0.56481 -0.35101,1.12936 -0.52691,1.69364 0.0379,0.58991 0.0755,1.17953 0.11291,1.7689 0.16336,0.62755 0.32645,1.25482 0.48927,1.88183 0.15081,0.69027 0.30136,1.38025 0.45164,2.06999 2.6e-4,0.62754 2.6e-4,1.25481 0,1.88182 0.11317,-0.11266 0.22608,-0.22555 0.33872,-0.33874 0.0755,-0.65209 0.15081,-1.30445 0.22582,-1.95707 -0.13774,-0.45138 -0.27573,-0.90303 -0.414,-1.35493 -0.12519,-0.63955 -0.25064,-1.27937 -0.37636,-1.91944 -0.1001,-0.5392 -0.20046,-1.07865 -0.30109,-1.61837 0.0128,-0.5392 0.0254,-1.07864 0.0376,-1.61836 -0.0123,-0.16283 -0.0248,-0.32591 -0.0376,-0.48927 z" /><path
       style="opacity:1;fill:#ffffff;fill-opacity:1;stroke:#ffffff;stroke-width:0;stroke-linecap:square;stroke-linejoin:round;stroke-dasharray:none;stroke-opacity:1"
       d="m 142.8361,265.03508 c -0.0314,0.33886 -0.0941,1.01631 -0.0627,1.68126 0.0314,0.66495 0.15686,1.3173 0.33252,1.95712 0.17566,0.63983 0.40148,1.2671 0.63359,1.86301 0.2321,0.59591 0.47046,1.16045 0.74648,1.72499 0.27602,0.56454 0.58965,1.12908 0.7715,1.53052 0.18185,0.40144 0.23204,0.63982 0.26336,0.56452 0.0313,-0.0753 0.0439,-0.46419 0.006,-0.81545 -0.0376,-0.35126 -0.12541,-0.66486 -0.30731,-1.17923 -0.1819,-0.51437 -0.45789,-1.22944 -0.70879,-1.8379 -0.2509,-0.60847 -0.47671,-1.11027 -0.68372,-1.61209 -0.20702,-0.50183 -0.39519,-1.00364 -0.51442,-1.49921 -0.11923,-0.49556 -0.16941,-0.98483 -0.23212,-1.43645 -0.0627,-0.45162 -0.13799,-0.86562 -0.17565,-1.07278 -0.0377,-0.20716 -0.0376,-0.20716 -0.069,0.13169 z"
       id="path23057"
       inkscape:path-effect="#path-effect23059"
       inkscape:original-d="m 142.86747,264.69623 c -0.0625,0.67773 -0.12519,1.35519 -0.18818,2.03237 0.12572,0.65265 0.25117,1.305 0.37636,1.95709 0.22609,0.62754 0.4519,1.25482 0.67746,1.88183 0.23863,0.5648 0.47699,1.12934 0.71509,1.69362 0.3139,0.56481 0.62753,1.12935 0.9409,1.69363 0.0504,0.23862 0.10063,0.47699 0.15055,0.71509 0.0128,-0.38865 0.0254,-0.77754 0.0376,-1.16671 -0.0876,-0.3134 -0.17538,-0.62701 -0.26346,-0.94091 -0.27574,-0.71485 -0.55173,-1.42992 -0.828,-2.14527 -0.22556,-0.50157 -0.45137,-1.00338 -0.67745,-1.50545 -0.18792,-0.50157 -0.3761,-1.00338 -0.56454,-1.50546 -0.0499,-0.48903 -0.1001,-0.97829 -0.15055,-1.46783 -0.075,-0.41372 -0.15028,-0.82772 -0.22582,-1.242 z" /><path
       style="opacity:1;fill:#ffffff;fill-opacity:1;stroke:#ffffff;stroke-width:0;stroke-linecap:square;stroke-linejoin:round;stroke-dasharray:none;stroke-opacity:1"
       d="m 147.54689,265.7376 c -0.10038,0.3639 -0.30111,1.09153 -0.42028,1.79413 -0.11916,0.7026 -0.1568,1.38003 -0.0626,2.15789 0.0941,0.77786 0.31995,1.65601 0.57717,2.41502 0.25722,0.75901 0.54575,1.39882 0.84061,1.92572 0.29485,0.5269 0.59594,0.94089 0.88448,1.36744 0.28853,0.42655 0.56452,0.86564 0.8217,1.29847 0.25718,0.43283 0.49554,0.85937 0.65858,1.26082 0.16303,0.40145 0.25086,0.77781 0.30099,0.73387 0.0501,-0.0439 0.0627,-0.50811 -2e-5,-1.0099 -0.0627,-0.50179 -0.20068,-1.04125 -0.43273,-1.61208 -0.23205,-0.57082 -0.55823,-1.17299 -0.84678,-1.73126 -0.28856,-0.55827 -0.53946,-1.07262 -0.8092,-1.67481 -0.26974,-0.60218 -0.55828,-1.29217 -0.79039,-1.92573 -0.23212,-0.63356 -0.40775,-1.21064 -0.49561,-1.80657 -0.0879,-0.59594 -0.0879,-1.21064 -0.0941,-1.80656 -0.006,-0.59593 -0.0188,-1.173 -0.0251,-1.46168 -0.006,-0.28868 -0.006,-0.28868 -0.10667,0.0752 z"
       id="path23103"
       inkscape:path-effect="#path-effect23105"
       inkscape:original-d="m 147.64728,265.37369 c -0.20046,0.7279 -0.40119,1.45553 -0.60218,2.18292 -0.0374,0.67773 -0.075,1.35517 -0.11291,2.03235 0.22609,0.87847 0.4519,1.75662 0.67746,2.63453 0.28881,0.64011 0.57735,1.27992 0.86563,1.91947 0.30136,0.41426 0.60245,0.82826 0.90327,1.24198 0.27627,0.43937 0.55227,0.87845 0.828,1.31729 0.23864,0.42682 0.477,0.85336 0.71509,1.27963 0.0881,0.37663 0.1759,0.753 0.26346,1.12908 0.0128,-0.46392 0.0253,-0.92808 0.0376,-1.39253 -0.13773,-0.53919 -0.27573,-1.07865 -0.41399,-1.61838 -0.32593,-0.60192 -0.6521,-1.20409 -0.97855,-1.80652 -0.25065,-0.51411 -0.50155,-1.02846 -0.75273,-1.5431 -0.28828,-0.68974 -0.57682,-1.37972 -0.86563,-2.07 -0.17538,-0.57684 -0.35101,-1.15392 -0.52691,-1.73127 2.6e-4,-0.61447 2.6e-4,-1.22917 0,-1.84417 -0.0123,-0.57685 -0.0248,-1.15393 -0.0376,-1.73128 z" /><path
       style="opacity:1;fill:#ffffff;fill-opacity:1;stroke:#ffffff;stroke-width:0;stroke-linecap:square;stroke-linejoin:round;stroke-dasharray:none;stroke-opacity:1"
       d="m 157.20694,266.30234 c 0.11294,0.1882 0.33876,1.26712 0.39517,2.21426 0.0564,0.94714 -0.0565,1.76259 -0.29488,2.73483 -0.23838,0.97225 -0.6022,2.10133 -1.03502,3.11121 -0.43281,1.00987 -0.93462,1.90058 -1.39252,2.60311 -0.4579,0.70252 -0.8719,1.21687 -0.89072,1.02245 -0.0188,-0.19441 0.35753,-1.09767 0.76525,-2.07622 0.40773,-0.97854 0.84682,-2.03235 1.22319,-3.06735 0.37636,-1.03499 0.69,-2.05115 0.86565,-2.93557 0.17566,-0.88442 0.21329,-1.6371 0.23211,-2.36474 0.0188,-0.72764 0.0188,-1.43019 0.13177,-1.24198 z"
       id="path23149"
       inkscape:path-effect="#path-effect23151"
       inkscape:original-d="m 157.094,265.41132 c 0.22608,1.07918 0.4519,2.1581 0.67745,3.23672 -0.11264,0.81574 -0.22555,1.63119 -0.33872,2.44637 -0.36356,1.12937 -0.72737,2.25846 -1.09146,3.38727 -0.50156,0.89101 -1.00337,1.78171 -1.50545,2.67219 -0.41374,0.51464 -0.82773,1.02899 -1.242,1.54308 0.37664,-0.90303 0.75299,-1.80629 1.12909,-2.70981 0.43936,-1.05357 0.87845,-2.10738 1.31727,-3.16146 0.31391,-1.01594 0.62754,-2.0321 0.94091,-3.04853 0.0379,-0.7525 0.0755,-1.50518 0.11291,-2.25819 2.6e-4,-0.70228 2.6e-4,-1.40483 0,-2.10764 z" /><path
       style="opacity:1;fill:#ffffff;fill-opacity:1;stroke:#ffffff;stroke-width:0;stroke-linecap:square;stroke-linejoin:round;stroke-dasharray:none;stroke-opacity:1"
       d="m 161.66057,265.1795 c -0.1757,0.45786 -0.37642,1.96332 -0.66498,3.2743 -0.28856,1.31097 -0.66492,2.42751 -0.91583,3.11121 -0.2509,0.68369 -0.37636,0.9346 -0.2258,0.75266 0.15055,-0.18194 0.57709,-0.79665 0.93463,-1.5117 0.35754,-0.71505 0.64608,-1.5305 0.85936,-2.36474 0.21329,-0.83424 0.35129,-1.68733 0.34507,-2.40864 -0.006,-0.72131 -0.15676,-1.31094 -0.33245,-0.85309 z"
       id="path23195"
       inkscape:path-effect="#path-effect23197"
       inkscape:original-d="m 161.68563,264.13169 c -0.20046,1.50571 -0.40119,3.01117 -0.60218,4.51635 -0.37611,1.11684 -0.75246,2.23338 -1.12909,3.34966 -0.12519,0.25116 -0.25064,0.50207 -0.37636,0.75271 0.42682,-0.61447 0.85335,-1.22918 1.27963,-1.84417 0.28882,-0.81521 0.57736,-1.63066 0.86564,-2.44637 0.13827,-0.85283 0.27626,-1.70592 0.414,-2.55926 -0.15029,-0.58938 -0.30083,-1.17901 -0.45164,-1.76892 z" /><path
       style="opacity:1;fill:#ffffff;fill-opacity:1;stroke:#ffffff;stroke-width:0;stroke-linecap:square;stroke-linejoin:round;stroke-dasharray:none;stroke-opacity:1"
       d="m 166.55958,260.18004 c 0.0941,0.30125 0.28233,0.90343 0.35127,1.73141 0.0689,0.82798 0.0188,1.88177 -0.11299,2.77873 -0.13175,0.89697 -0.34502,1.63714 -0.65866,2.4212 -0.31364,0.78406 -0.72762,1.61204 -0.91579,1.8881 -0.18817,0.27606 -0.15054,8e-5 0.0376,-0.64605 0.18818,-0.64613 0.5269,-1.66229 0.76527,-2.553 0.23837,-0.89071 0.37637,-1.65597 0.42658,-2.45259 0.0502,-0.79661 0.0126,-1.6246 1e-5,-2.20797 -0.0126,-0.58338 -3e-5,-0.9221 0.006,-1.09159 0.006,-0.16949 0.006,-0.16949 0.10044,0.13176 z"
       id="path23241"
       inkscape:path-effect="#path-effect23243"
       inkscape:original-d="m 166.46544,259.87879 c 0.18845,0.60245 0.37663,1.20463 0.56455,1.80654 -0.0499,1.05411 -0.1001,2.1079 -0.15055,3.16145 -0.21301,0.74046 -0.42628,1.48063 -0.63982,2.22054 -0.41374,0.82828 -0.82773,1.65626 -1.24199,2.48401 0.0379,-0.27575 0.0755,-0.55173 0.11291,-0.82801 0.33899,-1.01592 0.67771,-2.03208 1.01618,-3.04853 0.13826,-0.76502 0.27626,-1.53028 0.414,-2.29582 -0.0374,-0.82775 -0.075,-1.65574 -0.11291,-2.484 0.0128,-0.33847 0.0253,-0.67719 0.0376,-1.01618 z" /><path
       style="opacity:1;fill:#ffffff;fill-opacity:1;stroke:#ffffff;stroke-width:0;stroke-linecap:square;stroke-linejoin:round;stroke-dasharray:none;stroke-opacity:1"
       d="m 168.53543,252.16345 c -0.0377,0.22593 -0.11293,0.67756 -0.24467,1.08523 -0.13174,0.40768 -0.31992,0.77149 -0.28214,1.12914 0.0378,0.35764 0.30123,0.70891 0.53955,1.14802 0.23832,0.4391 0.45159,0.966 0.61465,1.48664 0.16306,0.52063 0.27596,1.03498 0.37628,0.85303 0.10032,-0.18196 0.18814,-1.06012 0.15054,-1.98846 -0.0376,-0.92833 -0.2007,-1.90686 -0.36374,-2.58431 -0.16305,-0.67745 -0.32614,-1.0538 -0.4516,-1.22961 -0.12547,-0.17581 -0.21324,-0.15073 -0.25723,-0.13815 -0.044,0.0126 -0.044,0.0126 -0.0816,0.23847 z"
       id="path23287"
       inkscape:path-effect="#path-effect23289"
       inkscape:original-d="m 168.57308,251.93753 c -0.075,0.4519 -0.15028,0.90353 -0.22582,1.3549 -0.18792,0.36409 -0.3761,0.72791 -0.56455,1.09146 0.26373,0.35154 0.52718,0.70281 0.79037,1.05381 0.21354,0.52719 0.42681,1.05409 0.63982,1.58073 0.11317,0.51464 0.22608,1.02899 0.33872,1.54309 0.0881,-0.87794 0.1759,-1.7561 0.26346,-2.63454 -0.16283,-0.9783 -0.32592,-1.95683 -0.48928,-2.93564 -0.16283,-0.3761 -0.32591,-0.75246 -0.48927,-1.12909 -0.0876,0.0254 -0.17537,0.0505 -0.26345,0.0753 z" /><path
       style="opacity:1;fill:#ffffff;fill-opacity:1;stroke:#4cb0f9;stroke-width:0;stroke-linecap:square;stroke-linejoin:round;stroke-dasharray:none;stroke-opacity:1"
       d="m 277.11268,931.08615 c 0,-1.61426 0.21011,-1.67246 7.57042,-2.09693 4.16373,-0.24013 14.38108,-0.65052 22.70521,-0.91197 8.77577,-0.27564 14.54557,-0.71238 13.7324,-1.03946 -0.77132,-0.31025 -10.8042,-0.81645 -22.29529,-1.12488 -11.49109,-0.30844 -21.03768,-0.71925 -21.21465,-0.91291 -0.17697,-0.19366 -0.53288,-2.0958 -0.79092,-4.22698 l -0.46916,-3.87486 5.48663,-1.48881 c 3.01764,-0.81885 9.2412,-2.80069 13.83014,-4.40409 9.15058,-3.19726 16.69256,-4.65298 21.37337,-4.12538 3.48234,0.39251 4.12091,-0.49964 0.82889,-1.15805 -4.71078,-0.94215 -11.62962,-0.40967 -18.22183,1.40238 -3.67958,1.01144 -8.90845,2.44618 -11.61972,3.18833 -2.71127,0.74214 -6.70708,1.53878 -8.87958,1.77032 -3.84115,0.40937 -3.95976,0.36997 -4.30376,-1.42954 -0.30848,-1.61373 -0.11845,-1.85204 1.48522,-1.86254 1.94337,-0.0127 7.37826,-1.3586 18.38826,-4.55357 6.1755,-1.79206 8.04446,-1.98219 24.29577,-2.47172 18.54521,-0.55863 19.46849,-0.7077 28.60565,-4.61857 7.23183,-3.09535 12.69789,-3.99604 18.28179,-3.01246 4.42137,0.77881 8.39425,3.28769 8.39425,5.30096 0,0.84631 -0.55362,0.97829 -2.64084,0.62958 -9.53088,-1.59234 -9.73173,-1.55998 -19.12301,3.08135 -13.02324,6.43629 -18.31746,7.76679 -30.95577,7.77955 -6.68748,0.007 -11.91646,0.38506 -14.88601,1.07697 -3.58605,0.83556 -22.34064,6.59741 -28.16901,8.65418 -1.61465,0.56979 11.32773,1.34032 36.97183,2.20112 57.34097,1.92479 60.45791,2.08666 61.56862,3.19737 0.94003,0.94003 0.93381,1.18045 -0.0561,2.17034 -1.16083,1.16082 1.206,1.03556 -71.72383,3.79569 -10.65141,0.40312 -21.34683,0.73113 -23.76761,0.72893 -4.15336,-0.004 -4.4014,-0.0976 -4.4014,-1.66435 z"
       id="path27353"
       transform="scale(0.26458333)" /><path
       style="opacity:1;fill:#ffffff;fill-opacity:1;stroke:#4cb0f9;stroke-width:0;stroke-linecap:square;stroke-linejoin:round;stroke-dasharray:none;stroke-opacity:1"
       d="m 135.21127,919.02444 c -2.32395,-0.47522 -8.27934,-1.24101 -13.23421,-1.70176 -10.00632,-0.93048 -15.41535,-2.35794 -24.761472,-6.53463 -11.214934,-5.01184 -13.633456,-5.56118 -27.145165,-6.16577 -9.395837,-0.42042 -13.140843,-0.86773 -15.762143,-1.88264 -4.496119,-1.74079 -9.58997,-6.19818 -9.58997,-8.39173 0,-2.68812 1.121466,-2.64989 5.06112,0.17254 l 3.716618,2.66265 15.265715,-0.23626 c 16.696086,-0.25839 21.073908,0.40664 30.106817,4.57348 7.31269,3.37332 12.51579,4.44617 25.07508,5.17037 6.58451,0.37967 13.55634,0.88404 15.49296,1.12082 4.92282,0.60186 3.6607,-0.34524 -5.98592,-4.49188 -43.529645,-18.71143 -78.77276,-34.33793 -79.907217,-35.4302 -1.291018,-1.243 -1.305972,-1.41467 -0.218011,-2.50263 1.08796,-1.08796 3.960578,-0.18623 41.879052,13.14601 22.391036,7.87274 43.448266,15.2737 46.793856,16.44657 5.83736,2.04642 6.05308,2.19788 5.3447,3.75261 -0.406,0.89107 -0.92498,1.61235 -1.15331,1.60285 -0.22831,-0.01 -9.74849,-3.32579 -21.15593,-7.36952 -11.40744,-4.04374 -20.88808,-7.20498 -21.06807,-7.02498 -0.47755,0.47755 -1.36617,0.0655 20.33,9.42745 11.03874,4.76324 20.1296,8.71116 20.20193,8.77314 0.0723,0.062 -0.40302,1.94284 -1.05633,4.17969 -1.02134,3.49689 -1.38529,4.01049 -2.5963,3.66391 -0.77465,-0.22169 -7.42958,-0.68023 -14.78873,-1.01898 -13.69316,-0.63031 -19.98014,-1.71447 -25.10576,-4.32936 -3.254809,-1.66048 -3.87776,-1.70484 -2.621316,-0.18664 0.531581,0.64233 2.804736,2.03795 5.051456,3.10138 4.06874,1.92584 8.19433,2.69095 22.67562,4.20529 3.87324,0.40504 8.78521,1.12568 10.91549,1.60144 3.43957,0.76815 3.89819,1.08041 4.09607,2.78888 0.25004,2.15875 0.34063,2.14517 -5.85663,0.8779 z"
       id="path27387"
       transform="scale(0.26458333)" /><g
       id="g28951"
       transform="translate(-3.633427,11.814547)"><path
         style="opacity:1;fill:#ffffff;fill-opacity:1;stroke:#ffffff;stroke-width:0;stroke-linecap:square;stroke-linejoin:round;stroke-dasharray:none;stroke-opacity:1"
         d="m 95.028572,135.31834 c 0.0585,0.39784 0.17547,1.19322 0.444566,1.97693 0.269096,0.78371 0.690178,1.55569 1.146417,2.15805 0.456239,0.60236 0.947495,1.03513 1.292565,1.27483 0.345069,0.2397 0.543913,0.28648 0.684102,0.13449 0.140189,-0.152 0.222067,-0.5029 0.280564,-0.84795 0.0585,-0.34504 0.09359,-0.68424 0.181478,-0.84223 0.08789,-0.158 0.228237,-0.1346 0.333385,0.13456 0.105148,0.26915 0.175328,0.78381 0.192846,1.35694 0.01752,0.57312 -0.01757,1.20474 -0.09362,1.76617 -0.07605,0.56143 -0.193014,1.05269 -0.327535,1.49715 -0.134521,0.44446 -0.286578,0.84215 -0.421089,1.28666 -0.13451,0.44451 -0.251475,0.93577 -0.321643,1.39197 -0.07017,0.45621 -0.09357,0.87729 -0.09354,1.19314 2.3e-5,0.31584 0.02342,0.52638 0.14036,0.47362 0.116937,-0.0528 0.327476,-0.36856 0.549716,-0.71947 0.222241,-0.3509 0.456173,-0.73689 0.684261,-1.15212 0.228089,-0.41523 0.450327,-0.8597 0.643327,-1.21063 0.19301,-0.35093 0.35676,-0.60825 0.51467,-0.9942 0.1579,-0.38595 0.30996,-0.9006 0.47372,-1.38604 0.16375,-0.48544 0.3392,-0.94161 0.61409,-1.43293 0.27489,-0.49132 0.64918,-1.01767 1.01765,-1.47387 0.36847,-0.45621 0.73107,-0.84219 1.20484,-1.21068 0.47377,-0.36848 1.0586,-0.71938 1.59087,-0.95332 0.53226,-0.23394 1.01182,-0.3509 1.44467,-0.36254 0.43285,-0.0116 0.81885,0.0819 1.10537,0.26921 0.28652,0.18727 0.47367,0.46799 0.53787,0.74866 0.0642,0.28067 0.006,0.5614 -0.10538,0.79524 -0.11111,0.23385 -0.27486,0.421 -0.56133,0.54379 -0.28646,0.12279 -0.69583,0.18127 -1.15789,0.28654 -0.46205,0.10526 -0.97671,0.25732 -1.46218,0.46787 -0.48546,0.21055 -0.94162,0.47957 -1.32184,0.83638 -0.38021,0.35681 -0.68433,0.80128 -0.90073,1.21658 -0.2164,0.41529 -0.34506,0.80128 -0.42692,1.16393 -0.0819,0.36264 -0.11695,0.70185 -0.10526,0.83041 0.0117,0.12857 0.0702,0.0467 0.18128,-0.14627 0.11112,-0.19298 0.27487,-0.4971 0.48543,-0.80126 0.21056,-0.30415 0.46789,-0.60826 0.73109,-0.88316 0.2632,-0.2749 0.53222,-0.52052 0.78959,-0.71354 0.25737,-0.19302 0.50299,-0.33338 0.74865,-0.45036 0.24567,-0.11697 0.4913,-0.21054 0.71359,-0.26316 0.2223,-0.0526 0.42114,-0.0643 0.39762,0.0702 -0.0235,0.13453 -0.26916,0.41525 -0.45048,0.70189 -0.18133,0.28663 -0.29829,0.57905 -0.38601,0.87736 -0.0877,0.29831 -0.14621,0.60242 -0.15199,0.83641 -0.006,0.23399 0.041,0.39774 0.15205,0.30406 0.11106,-0.0937 0.2865,-0.44458 0.52048,-0.73707 0.23399,-0.29248 0.52641,-0.52642 0.85397,-0.71943 0.32757,-0.19302 0.69016,-0.34507 1.02943,-0.43864 0.33926,-0.0936 0.65507,-0.12865 0.95337,-0.13447 0.2983,-0.006 0.57902,0.0176 0.88901,0.0937 0.30999,0.0761 0.64919,0.20474 0.94745,0.35099 0.29827,0.14625 0.5556,0.31001 0.78368,0.47964 0.22807,0.16964 0.42691,0.34508 0.56718,0.56735 0.14027,0.22227 0.22216,0.49131 0.30401,0.60226 0.0819,0.11095 0.16377,0.0641 0.20466,-0.0936 0.0409,-0.15775 0.0409,-0.42677 -0.0117,-0.70747 -0.0526,-0.28071 -0.15784,-0.57312 -0.32155,-0.86555 -0.1637,-0.29244 -0.38594,-0.58486 -0.56723,-0.80127 -0.18128,-0.21641 -0.32164,-0.35677 -0.32166,-0.4388 -3e-5,-0.082 0.14032,-0.10542 0.36847,-0.0703 0.22814,0.0352 0.54396,0.12872 0.83053,0.26915 0.28657,0.14042 0.54389,0.32757 0.8246,0.56738 0.28071,0.23981 0.58483,0.53223 0.8363,0.80712 0.25146,0.2749 0.4503,0.53222 0.60819,0.76032 0.15788,0.2281 0.27485,0.42695 0.38596,0.63164 0.11111,0.2047 0.21638,0.41525 0.23971,0.25147 0.0233,-0.16377 -0.0352,-0.70182 -0.14622,-1.15214 -0.11106,-0.45031 -0.27482,-0.81292 -0.47947,-1.14629 -0.20465,-0.33338 -0.45028,-0.63749 -0.70174,-0.9007 -0.25146,-0.2632 -0.50879,-0.48544 -0.78365,-0.67263 -0.27487,-0.18719 -0.56728,-0.33925 -0.89481,-0.43289 -0.32753,-0.0936 -0.69012,-0.12874 -1.01763,-0.18719 -0.3275,-0.0585 -0.61992,-0.14033 -0.90064,-0.24557 -0.28073,-0.10524 -0.54976,-0.23391 -0.71947,-0.41513 -0.16972,-0.18122 -0.2399,-0.41516 -0.25166,-0.64916 -0.0118,-0.234 0.035,-0.46791 0.15787,-0.67272 0.12284,-0.20481 0.32169,-0.38026 0.53819,-0.48554 0.21649,-0.10528 0.45042,-0.14037 0.75458,-0.13449 0.30415,0.006 0.67845,0.0527 0.97673,0.11704 0.29828,0.0644 0.52053,0.14625 0.75447,0.23398 0.23393,0.0877 0.47957,0.18131 0.76614,0.35096 0.28656,0.16966 0.61407,0.41529 0.91818,0.66679 0.30411,0.2515 0.58483,0.50883 0.81874,0.76034 0.23392,0.2515 0.42106,0.49713 0.59649,0.77787 0.17542,0.28073 0.33917,0.59654 0.50877,0.94745 0.1696,0.35092 0.34505,0.73691 0.54389,1.19894 0.19885,0.46203 0.42108,1.00007 0.61408,1.46211 0.19301,0.46203 0.35676,0.84802 0.52638,1.21647 0.16961,0.36845 0.34506,0.71935 0.55562,1.11705 0.21055,0.3977 0.45618,0.84217 0.68429,1.21062 0.22811,0.36845 0.43865,0.66086 0.55551,0.59065 0.11686,-0.0702 0.14026,-0.50298 0.14027,-0.88897 2e-5,-0.38598 -0.0234,-0.72518 -0.0994,-1.11117 -0.076,-0.38599 -0.20465,-0.81876 -0.3567,-1.2574 -0.15204,-0.43864 -0.32749,-0.88311 -0.45618,-1.26326 -0.12869,-0.38015 -0.21057,-0.69596 -0.2574,-1.02935 -0.0468,-0.33338 -0.0585,-0.68428 -0.0468,-1.09369 0.0117,-0.40941 0.0468,-0.87727 0.11694,-1.2984 0.0702,-0.42113 0.17544,-0.79542 0.26901,-1.06447 0.0936,-0.26906 0.17545,-0.43283 0.23397,-0.32161 0.0585,0.11122 0.0936,0.4972 0.15212,0.87152 0.0585,0.37432 0.14039,0.7369 0.27502,0.96491 0.13464,0.22802 0.32179,0.32159 0.53803,0.24548 0.21624,-0.0761 0.46187,-0.32173 0.74843,-0.66678 0.28656,-0.34504 0.61406,-0.78951 0.85384,-1.19886 0.23978,-0.40935 0.39183,-0.78364 0.50296,-1.12867 0.11113,-0.34504 0.18131,-0.66084 0.25149,-0.99419 0.0702,-0.33336 0.14036,-0.68427 0.17547,-0.97667 0.0351,-0.29239 0.0351,-0.52632 0.11129,-0.59068 0.0762,-0.0644 0.22824,0.0409 0.30998,0.31582 0.0817,0.27492 0.0934,0.71939 0.10513,1.10539 0.0117,0.386 0.0234,0.71351 -0.0117,1.15797 -0.0351,0.44445 -0.11699,1.0059 -0.22227,1.52054 -0.10528,0.51464 -0.23394,0.98251 -0.32166,1.35098 -0.0877,0.36847 -0.13451,0.6375 -0.0291,0.98261 0.10538,0.34511 0.36271,0.76619 0.5674,1.1054 0.2047,0.33922 0.35675,0.59654 0.51465,0.90067 0.15789,0.30413 0.32164,0.65502 0.47368,1.04687 0.15204,0.39184 0.2924,0.82462 0.4035,1.21061 0.11111,0.386 0.19299,0.72522 0.25145,1.10535 0.0585,0.38014 0.0935,0.80122 0.0994,1.22814 0.006,0.42692 -0.0176,0.85969 -0.13447,0.83048 -0.1169,-0.0292 -0.32744,-0.52046 -0.49122,-0.9708 -0.16378,-0.45034 -0.28074,-0.85972 -0.42692,-1.22818 -0.14617,-0.36845 -0.32162,-0.69595 -0.58475,-1.02934 -0.26313,-0.3334 -0.61404,-0.6726 -0.95324,-0.98843 -0.33921,-0.31582 -0.66672,-0.60824 -0.86553,-0.77203 -0.19882,-0.1638 -0.26902,-0.1989 -0.29255,-0.12864 -0.0235,0.0702 -1.3e-4,0.24568 0.0584,0.47379 0.0585,0.2281 0.15209,0.50883 0.23982,0.77786 0.0877,0.26902 0.1696,0.52636 0.23391,0.78368 0.0643,0.25732 0.1111,0.51465 0.15202,0.92989 0.0409,0.41524 0.076,0.98836 0.0877,1.60245 0.0117,0.61408 -1e-5,1.26909 -0.041,1.81298 -0.041,0.54389 -0.11113,0.97666 -0.21057,1.39773 -0.0994,0.42106 -0.22809,0.83045 -0.33337,1.15796 -0.10527,0.32751 -0.18715,0.57315 -0.38587,0.4504 -0.19872,-0.12276 -0.51453,-0.61402 -0.81283,-1.15207 -0.29829,-0.53805 -0.57902,-1.12289 -0.91819,-1.66096 -0.33917,-0.53807 -0.73686,-1.02934 -1.05852,-1.42703 -0.32167,-0.3977 -0.5673,-0.70181 -0.76612,-0.90655 -0.19881,-0.20474 -0.35086,-0.31 -0.42705,-0.2047 -0.0762,0.1053 -0.0762,0.42111 -0.0586,0.77203 0.0176,0.35093 0.0526,0.73691 0.0643,1.25157 0.0117,0.51465 -2e-5,1.15796 -0.0234,1.68432 -0.0234,0.52636 -0.0585,0.93572 -0.13454,1.3451 -0.076,0.40937 -0.19301,0.81876 -0.32752,1.29833 -0.13451,0.47957 -0.28657,1.02932 -0.39769,1.4036 -0.11112,0.37427 -0.18131,0.57315 -0.27481,0.50304 -0.0935,-0.0701 -0.21046,-0.40932 -0.33915,-0.9006 -0.12868,-0.49129 -0.26904,-1.13459 -0.39186,-1.69605 -0.12282,-0.56146 -0.22809,-1.04102 -0.36842,-1.47965 -0.14033,-0.43863 -0.31578,-0.8363 -0.50874,-1.18137 -0.19296,-0.34508 -0.4035,-0.63749 -0.63161,-1.00594 -0.22811,-0.36845 -0.47374,-0.81292 -0.70181,-1.18138 -0.22807,-0.36846 -0.43861,-0.66088 -0.68423,-0.94748 -0.24561,-0.28659 -0.52633,-0.56731 -0.7076,-0.73693 -0.18128,-0.16963 -0.26317,-0.22812 -0.31012,-0.16962 -0.047,0.0585 -0.0587,0.23395 0.0292,0.5615 0.0878,0.32756 0.27494,0.80711 0.43867,1.35687 0.16374,0.54975 0.3041,1.16968 0.40935,1.813 0.10525,0.64332 0.17543,1.31004 0.1871,1.86562 0.0117,0.55557 -0.0351,1.00004 -0.1053,1.71356 -0.0702,0.71351 -0.16376,1.69604 -0.28074,2.50311 -0.11698,0.80706 -0.25734,1.4387 -0.46789,2.16974 -0.21055,0.73104 -0.49127,1.56151 -0.74275,2.19896 -0.25148,0.63745 -0.47372,1.08193 -0.7018,1.47375 -0.22808,0.39183 -0.46203,0.73104 -0.67257,1.0176 -0.21054,0.28656 -0.39769,0.5205 -0.53206,0.5908 -0.13437,0.0703 -0.21626,-0.0233 -0.36253,-0.36246 -0.14628,-0.33919 -0.35682,-0.92403 -0.57905,-1.48549 -0.22223,-0.56146 -0.45617,-1.09951 -0.64329,-1.48551 -0.18713,-0.386 -0.32749,-0.61992 -0.49126,-0.92405 -0.16378,-0.30412 -0.35092,-0.6784 -0.50885,-1.02347 -0.15792,-0.34506 -0.28659,-0.66087 -0.42697,-1.05857 -0.14037,-0.3977 -0.29243,-0.87726 -0.39188,-1.25741 -0.0995,-0.38016 -0.14623,-0.66089 -0.18135,-1.01182 -0.0351,-0.35092 -0.0585,-0.77198 -0.0702,-1.3393 -0.0117,-0.56731 -0.0117,-1.28081 0.006,-1.88321 0.0175,-0.6024 0.0526,-1.09367 0.0936,-1.50893 0.0409,-0.41525 0.0877,-0.75444 0.19883,-1.15803 0.11111,-0.40359 0.28656,-0.87146 0.43278,-1.26915 0.14621,-0.39769 0.26317,-0.7252 0.38015,-0.97673 0.11697,-0.25153 0.23394,-0.42697 0.19314,-0.50889 -0.0408,-0.0819 -0.23963,-0.0702 -0.5439,0.24565 -0.30427,0.31586 -0.71366,0.93578 -1.07042,1.52064 -0.35676,0.58486 -0.66087,1.13461 -0.93575,1.66098 -0.27488,0.52638 -0.52051,1.02933 -0.772,1.57325 -0.25148,0.54392 -0.50881,1.12876 -0.6901,1.68439 -0.18129,0.55564 -0.28656,1.082 -0.37429,1.53819 -0.0877,0.45618 -0.15791,0.84218 -0.28061,0.89486 -0.1227,0.0527 -0.29815,-0.22805 -0.46197,-0.71347 -0.16382,-0.48542 -0.31588,-1.17553 -0.41533,-1.77208 -0.0994,-0.59656 -0.14623,-1.09953 -0.18133,-1.56156 -0.0351,-0.46203 -0.0585,-0.8831 -0.0702,-1.33345 -0.0117,-0.45034 -0.0117,-0.9299 0.0117,-1.3744 0.0234,-0.4445 0.0702,-0.85389 0.0877,-1.11119 0.0176,-0.2573 0.006,-0.36257 -0.15205,-0.26914 -0.15793,0.0934 -0.46204,0.38584 -0.71939,0.67244 -0.25735,0.2866 -0.4679,0.56732 -0.678449,0.8656 -0.210553,0.29828 -0.421092,0.6141 -0.625791,0.92992 -0.204698,0.31582 -0.403543,0.63164 -0.61409,0.9767 -0.210546,0.34506 -0.432789,0.71937 -0.614089,1.04103 -0.181299,0.32167 -0.321661,0.5907 -0.415236,0.81298 -0.09358,0.22229 -0.140362,0.39774 -0.245476,0.48538 -0.105113,0.0876 -0.268873,0.0876 -0.385949,-0.13446 -0.117075,-0.22208 -0.187255,-0.66657 -0.274978,-1.16953 -0.08772,-0.50297 -0.192996,-1.06442 -0.263194,-1.54985 -0.0702,-0.48544 -0.105288,-0.89482 -0.128691,-1.31592 -0.0234,-0.42109 -0.0351,-0.85387 -0.01172,-1.40365 0.02338,-0.54978 0.08186,-1.21648 0.192965,-1.78383 0.111105,-0.56734 0.274859,-1.03521 0.409376,-1.42706 0.134517,-0.39185 0.239789,-0.70765 0.292451,-0.88889 0.05266,-0.18123 0.05266,-0.22803 -0.06429,-0.16385 -0.116951,0.0642 -0.350883,0.23962 -0.619937,0.47943 -0.269055,0.23981 -0.573164,0.54392 -0.877303,0.90655 -0.30414,0.36263 -0.608256,0.78372 -0.8422,1.13464 -0.233943,0.35092 -0.397699,0.63164 -0.532217,0.89485 -0.134518,0.2632 -0.239787,0.50884 -0.356754,0.83637 -0.116968,0.32753 -0.245632,0.73691 -0.368445,1.02343 -0.122812,0.28653 -0.239773,0.45028 -0.280703,0.32755 -0.04093,-0.12273 -0.0058,-0.53211 0.02925,-0.95905 0.03509,-0.42694 0.07018,-0.87141 0.128656,-1.34515 0.05848,-0.47374 0.140352,-0.9767 0.251464,-1.43876 0.111113,-0.46206 0.251474,-0.88314 0.385991,-1.21068 0.134517,-0.32755 0.263184,-0.56149 0.426946,-0.82469 0.163762,-0.26319 0.36261,-0.55562 0.590706,-0.87144 0.228095,-0.31583 0.485417,-0.65503 0.666718,-0.89482 0.181302,-0.23978 0.286572,-0.38014 0.28083,-0.54962 -0.0057,-0.16947 -0.122707,-0.36831 -0.251389,-0.61394 -0.128683,-0.24564 -0.269045,-0.53806 -0.391885,-0.83633 -0.12284,-0.29828 -0.228108,-0.60239 -0.304167,-0.90067 -0.07606,-0.29828 -0.122845,-0.59069 -0.175475,-0.87727 -0.05263,-0.28657 -0.111114,-0.56729 -0.128696,-0.92408 -0.01758,-0.35679 0.0058,-0.78957 0.0526,-1.18728 0.04678,-0.39771 0.116962,-0.76032 0.152074,-0.94172 0.03511,-0.18141 0.03516,-0.18143 0.09367,0.21642 z"
         id="path22803"
         inkscape:path-effect="#path-effect22805"
         inkscape:original-d="m 94.970066,134.92049 c 0.11723,0.79566 0.2342,1.59104 0.3509,2.38617 0.42136,0.77227 0.84244,1.54425 1.26327,2.31598 0.49154,0.43306 0.9828,0.86583 1.4738,1.29835 0.19912,0.047 0.39796,0.0938 0.59654,0.14036 0.0821,-0.35065 0.16402,-0.70154 0.24564,-1.05272 0.0354,-0.33895 0.0704,-0.67815 0.10527,-1.01762 0.14063,0.0237 0.28099,0.047 0.42109,0.0702 0.0704,0.51494 0.14062,1.02959 0.210541,1.54399 -0.0348,0.6319 -0.0699,1.26352 -0.105271,1.89489 -0.11671,0.49154 -0.23367,0.9828 -0.35091,1.47381 -0.1518,0.39796 -0.30385,0.79565 -0.45618,1.19308 -0.1167,0.49154 -0.23367,0.9828 -0.3509,1.4738 -0.0231,0.42136 -0.0465,0.84244 -0.0702,1.26327 0.0237,0.21081 0.0471,0.42135 0.0702,0.63163 0.21081,-0.31556 0.42135,-0.63137 0.63163,-0.94745 0.23421,-0.38574 0.46814,-0.77173 0.701811,-1.15799 0.22251,-0.44423 0.444753,-0.8887 0.666723,-1.33344 0.16403,-0.25708 0.32778,-0.5144 0.49127,-0.772 0.15233,-0.51441 0.30439,-1.02906 0.45618,-1.54399 0.17572,-0.45592 0.35117,-0.91209 0.52636,-1.36853 0.37457,-0.52611 0.74887,-1.05245 1.1229,-1.57908 0.36288,-0.38574 0.72547,-0.77173 1.08781,-1.15799 0.58512,-0.35065 1.16995,-0.70155 1.75452,-1.05272 0.47985,-0.1167 0.95941,-0.23367 1.43872,-0.3509 0.38627,0.0938 0.77226,0.18741 1.15799,0.28072 0.18742,0.281 0.37456,0.56172 0.56145,0.84217 -0.0582,0.281 -0.11671,0.56172 -0.17546,0.84218 -0.16349,0.18742 -0.32724,0.37457 -0.49126,0.56145 -0.40914,0.0588 -0.81852,0.11723 -1.22818,0.17545 -0.5144,0.15233 -1.02906,0.30439 -1.54398,0.45618 -0.45592,0.2693 -0.91208,0.53832 -1.36853,0.80709 -0.30386,0.44475 -0.60797,0.88922 -0.91236,1.33344 -0.1284,0.38627 -0.25706,0.77226 -0.38599,1.15799 -0.0348,0.33948 -0.0699,0.67869 -0.10527,1.01763 0.0588,-0.0816 0.11723,-0.16349 0.17545,-0.24563 0.16402,-0.30386 0.32778,-0.60798 0.49127,-0.91236 0.2576,-0.30386 0.51492,-0.60797 0.77199,-0.91236 0.2693,-0.24537 0.53832,-0.491 0.80709,-0.7369 0.2459,-0.1401 0.49152,-0.28046 0.73689,-0.42109 0.2459,-0.0933 0.49153,-0.18688 0.7369,-0.28072 0.19912,-0.0114 0.39796,-0.0231 0.59654,-0.0351 -0.24537,0.28099 -0.491,0.56171 -0.7369,0.84217 -0.11671,0.29269 -0.23367,0.58511 -0.35091,0.87727 -0.0582,0.30439 -0.1167,0.6085 -0.17545,0.91235 0.047,0.16403 0.0938,0.32778 0.14036,0.49127 0.17573,-0.35065 0.35117,-0.70155 0.52636,-1.05272 0.29269,-0.23367 0.58511,-0.46761 0.87727,-0.70181 0.36287,-0.1518 0.72547,-0.30385 1.08781,-0.45618 0.31609,-0.0348 0.63189,-0.0699 0.94744,-0.10527 0.281,0.0237 0.56172,0.0471 0.84218,0.0702 0.33948,0.12894 0.67868,0.2576 1.01763,0.386 0.2576,0.16402 0.51493,0.32778 0.77199,0.49127 0.19912,0.17572 0.39796,0.35117 0.59654,0.52636 0.0821,0.26929 0.16402,0.53832 0.24564,0.80708 0.0821,-0.0465 0.16402,-0.0933 0.24563,-0.14036 2.7e-4,-0.26877 2.7e-4,-0.53779 0,-0.80709 -0.10501,-0.29216 -0.21028,-0.58457 -0.31581,-0.87726 -0.22198,-0.29216 -0.44422,-0.58458 -0.66673,-0.87727 -0.1401,-0.1401 -0.28046,-0.28046 -0.42108,-0.42108 0.14063,-0.0231 0.28098,-0.0465 0.42108,-0.0702 0.31609,0.0938 0.6319,0.18741 0.94745,0.28072 0.2576,0.18742 0.51493,0.37456 0.77199,0.56145 0.30439,0.29269 0.60851,0.58511 0.91236,0.87727 0.19912,0.2576 0.39796,0.51492 0.59654,0.77199 0.11724,0.19911 0.2342,0.39796 0.35091,0.59654 0.10554,0.21081 0.21081,0.42135 0.31581,0.63163 -0.0582,-0.5378 -0.1167,-1.07585 -0.17545,-1.61417 -0.16349,-0.36234 -0.32725,-0.72494 -0.49127,-1.08781 -0.24537,-0.30386 -0.491,-0.60797 -0.7369,-0.91235 -0.25707,-0.22198 -0.5144,-0.44422 -0.772,-0.66673 -0.29216,-0.15179 -0.58457,-0.30385 -0.87726,-0.45617 -0.36235,-0.0348 -0.72494,-0.0699 -1.08781,-0.10528 -0.29216,-0.0816 -0.58458,-0.16349 -0.87727,-0.24563 -0.26876,-0.1284 -0.53779,-0.25707 -0.80708,-0.386 -0.0699,-0.23368 -0.1401,-0.46761 -0.21055,-0.70181 0.0471,-0.23368 0.0938,-0.46761 0.14037,-0.70181 0.19911,-0.17519 0.39796,-0.35064 0.59654,-0.52636 0.23421,-0.0348 0.46814,-0.0699 0.70181,-0.10527 0.37457,0.047 0.74887,0.0938 1.1229,0.14036 0.22251,0.0821 0.44475,0.16402 0.66672,0.24563 0.24591,0.0938 0.49154,0.18742 0.73691,0.28073 0.32778,0.2459 0.65529,0.49153 0.98253,0.7369 0.281,0.2576 0.56172,0.51493 0.84218,0.772 0.18742,0.2459 0.37456,0.49153 0.56145,0.7369 0.16402,0.31608 0.32778,0.63189 0.49127,0.94745 0.17572,0.38626 0.35117,0.77225 0.52636,1.15799 0.22251,0.53833 0.44474,1.07637 0.66672,1.61416 0.16402,0.38628 0.32778,0.77226 0.49127,1.158 0.17572,0.35117 0.35117,0.70207 0.52636,1.05271 0.2459,0.44476 0.49153,0.88923 0.7369,1.33345 0.21081,0.29269 0.42135,0.58511 0.63163,0.87727 0.0236,-0.43254 0.047,-0.86531 0.0702,-1.29836 -0.0231,-0.33895 -0.0465,-0.67815 -0.0702,-1.01763 -0.1284,-0.43253 -0.25707,-0.8653 -0.38599,-1.29835 -0.1752,-0.44423 -0.35065,-0.8887 -0.52636,-1.33344 -0.0816,-0.31556 -0.16349,-0.63137 -0.24564,-0.94745 -0.0114,-0.35065 -0.0231,-0.70155 -0.0351,-1.05272 0.0354,-0.46762 0.0704,-0.93548 0.10527,-1.40363 0.10554,-0.37404 0.21081,-0.74833 0.31582,-1.12289 0.0821,-0.1635 0.16402,-0.32725 0.24563,-0.49128 0.0354,0.38628 0.0704,0.77227 0.10527,1.158 0.0822,0.36287 0.16402,0.72547 0.24564,1.08781 0.18742,0.0938 0.37456,0.18741 0.56145,0.28072 0.2459,-0.24537 0.49153,-0.491 0.7369,-0.7369 0.32779,-0.44423 0.65529,-0.8887 0.98254,-1.33345 0.15233,-0.37404 0.30438,-0.74833 0.45618,-1.1229 0.0705,-0.31555 0.14062,-0.63136 0.21054,-0.94744 0.0704,-0.35065 0.14063,-0.70155 0.21054,-1.05272 2.7e-4,-0.23368 2.7e-4,-0.46761 0,-0.70181 0.15233,0.10553 0.30439,0.2108 0.45618,0.31581 0.012,0.44476 0.0237,0.88923 0.0351,1.33345 0.012,0.32778 0.0237,0.65529 0.0351,0.98253 -0.0816,0.56173 -0.16349,1.12317 -0.24563,1.68435 -0.1284,0.46815 -0.25707,0.93602 -0.386,1.40363 -0.0465,0.2693 -0.0933,0.53832 -0.14036,0.80708 0.2576,0.42136 0.51493,0.84244 0.77199,1.26327 0.15233,0.2576 0.30439,0.51492 0.45618,0.77199 0.16403,0.35118 0.32778,0.70208 0.49127,1.05272 0.14063,0.43305 0.28099,0.86583 0.42109,1.29835 0.0821,0.33948 0.16402,0.67869 0.24563,1.01763 0.0354,0.42136 0.0704,0.84244 0.10528,1.26326 -0.0231,0.43306 -0.0465,0.86583 -0.0702,1.29835 -0.21028,-0.49101 -0.42082,-0.98227 -0.63163,-1.4738 -0.1167,-0.40914 -0.23367,-0.81852 -0.3509,-1.22817 -0.1752,-0.32726 -0.35064,-0.65476 -0.52636,-0.98254 -0.35065,-0.33895 -0.70155,-0.67816 -1.05272,-1.01763 -0.32726,-0.29216 -0.65476,-0.58458 -0.98254,-0.87727 -0.0699,-0.0348 -0.1401,-0.0699 -0.21054,-0.10527 0.0237,0.17573 0.047,0.35117 0.0702,0.52636 0.0938,0.281 0.18741,0.56172 0.28072,0.84218 0.0821,0.2576 0.16402,0.51493 0.24564,0.77199 0.047,0.2576 0.0938,0.51493 0.14036,0.772 0.0354,0.57342 0.0704,1.14655 0.10527,1.71943 -0.0114,0.65531 -0.0231,1.31032 -0.0351,1.96508 -0.0699,0.43306 -0.1401,0.86583 -0.21054,1.29836 -0.12841,0.40965 -0.25707,0.81904 -0.386,1.22817 -0.0816,0.2459 -0.16349,0.49154 -0.24563,0.73689 -0.31556,-0.49101 -0.63137,-0.98227 -0.94745,-1.47381 -0.28047,-0.58457 -0.56119,-1.16941 -0.84218,-1.75452 -0.39743,-0.49101 -0.79512,-0.98227 -1.19308,-1.47381 -0.24537,-0.30385 -0.491,-0.60797 -0.7369,-0.91235 -0.1518,-0.10501 -0.30385,-0.21028 -0.45618,-0.31582 2.7e-4,0.31609 2.7e-4,0.6319 0,0.94745 0.0354,0.38627 0.0704,0.77226 0.10527,1.15799 -0.0114,0.64361 -0.0231,1.28692 -0.0351,1.92998 -0.0348,0.40968 -0.0699,0.81904 -0.10527,1.22817 -0.11671,0.40968 -0.23367,0.81907 -0.3509,1.22819 -0.1518,0.55002 -0.30386,1.09977 -0.45618,1.64926 -0.0699,0.19909 -0.1401,0.39796 -0.21055,0.59653 -0.1167,-0.33896 -0.23367,-0.67816 -0.3509,-1.01762 -0.1401,-0.6431 -0.28046,-1.2864 -0.42109,-1.93 -0.10501,-0.47932 -0.21028,-0.95888 -0.31582,-1.4387 -0.17519,-0.39746 -0.35064,-0.79513 -0.52636,-1.19309 -0.21028,-0.29216 -0.42082,-0.58458 -0.63163,-0.87727 -0.24537,-0.44422 -0.491,-0.88869 -0.7369,-1.33344 -0.21028,-0.29216 -0.42082,-0.58458 -0.63163,-0.87726 -0.28047,-0.28047 -0.56119,-0.56119 -0.84218,-0.84218 -0.0816,-0.0582 -0.16349,-0.1167 -0.24563,-0.17545 -0.0114,0.17572 -0.0231,0.35117 -0.0351,0.52636 0.18742,0.47984 0.37456,0.9594 0.56145,1.43871 0.14063,0.62021 0.28099,1.24014 0.42109,1.85981 0.0704,0.66699 0.14062,1.33371 0.21054,2.00017 -0.0465,0.44474 -0.0933,0.88921 -0.14036,1.33342 -0.0933,0.98282 -0.18689,1.96535 -0.28073,2.94762 -0.1401,0.6319 -0.28046,1.26354 -0.42109,1.89489 -0.28046,0.83077 -0.56118,1.66124 -0.84217,2.49145 -0.22198,0.44474 -0.44422,0.88921 -0.66672,1.33345 -0.23368,0.33946 -0.46761,0.67868 -0.70181,1.01761 -0.1869,0.23421 -0.37404,0.46816 -0.56146,0.70181 -0.0816,-0.0933 -0.16349,-0.18688 -0.24563,-0.28072 -0.21028,-0.58457 -0.42082,-1.16941 -0.63163,-1.75453 -0.23368,-0.5378 -0.46761,-1.07585 -0.70181,-1.61417 -0.1401,-0.23368 -0.28046,-0.4676 -0.42109,-0.70181 -0.18689,-0.37404 -0.37404,-0.74832 -0.56145,-1.12289 -0.1284,-0.31557 -0.25707,-0.63138 -0.386,-0.94745 -0.1518,-0.47932 -0.30385,-0.95888 -0.45618,-1.43872 -0.0465,-0.28046 -0.0933,-0.56119 -0.14036,-0.84217 -0.0231,-0.42085 -0.0465,-0.84191 -0.0702,-1.26326 2.6e-4,-0.71326 2.6e-4,-1.42676 0,-2.14053 0.0354,-0.49101 0.0705,-0.98228 0.10527,-1.47381 0.0471,-0.33895 0.0938,-0.67816 0.14037,-1.01763 0.17572,-0.46762 0.35117,-0.93549 0.52636,-1.40362 0.11723,-0.32726 0.2342,-0.65477 0.3509,-0.98254 0.11724,-0.17519 0.2342,-0.35064 0.35091,-0.52636 -0.19859,0.012 -0.39743,0.0236 -0.59654,0.0351 -0.40914,0.62021 -0.81852,1.24013 -1.22818,1.8598 -0.30384,0.55003 -0.60796,1.09977 -0.91234,1.64926 -0.24538,0.50324 -0.49101,1.0062 -0.73691,1.50889 -0.25707,0.58513 -0.51439,1.16997 -0.77199,1.75454 -0.10501,0.52662 -0.21028,1.05298 -0.31581,1.57908 -0.0699,0.38627 -0.1401,0.77227 -0.21055,1.15798 -0.17519,-0.28046 -0.35064,-0.56118 -0.52636,-0.84217 -0.15179,-0.68985 -0.30385,-1.37996 -0.45618,-2.07034 -0.0465,-0.50271 -0.0933,-1.00568 -0.14036,-1.50889 -0.0231,-0.42085 -0.0465,-0.84192 -0.0702,-1.26327 2.7e-4,-0.47932 2.7e-4,-0.95888 0,-1.43872 0.047,-0.40913 0.0938,-0.81852 0.14036,-1.22817 -0.0114,-0.10501 -0.0231,-0.21028 -0.0351,-0.31582 -0.30386,0.2927 -0.60797,0.58511 -0.91235,0.87727 -0.21029,0.28099 -0.42083,0.56171 -0.631643,0.84217 -0.21028,0.31609 -0.420821,0.6319 -0.631631,0.94745 -0.19858,0.31609 -0.39743,0.6319 -0.59654,0.94745 -0.22198,0.37457 -0.44421,0.74888 -0.66672,1.12289 -0.1401,0.26929 -0.28046,0.53832 -0.42109,0.80709 -0.0465,0.17573 -0.0933,0.35118 -0.14036,0.52636 -0.16349,2.6e-4 -0.32725,2.6e-4 -0.49127,0 -0.0699,-0.44421 -0.1401,-0.88869 -0.21054,-1.33345 -0.10501,-0.56118 -0.21028,-1.12263 -0.31582,-1.68434 -0.0348,-0.40914 -0.0699,-0.81852 -0.10527,-1.22817 -0.0114,-0.43253 -0.0231,-0.86531 -0.0351,-1.29836 0.0588,-0.66647 0.11723,-1.33318 0.17545,-2.00016 0.16403,-0.46762 0.32778,-0.93549 0.49127,-1.40363 0.10554,-0.31556 0.21081,-0.63137 0.31582,-0.94744 2.6e-4,-0.0465 2.6e-4,-0.0933 0,-0.14037 -0.23368,0.17572 -0.46761,0.35117 -0.70182,0.52636 -0.30386,0.30439 -0.60797,0.6085 -0.91235,0.91236 -0.30386,0.42136 -0.60798,0.84244 -0.91236,1.26326 -0.16349,0.28099 -0.32724,0.56172 -0.49127,0.84218 -0.10501,0.2459 -0.21028,0.49153 -0.31581,0.7369 -0.1284,0.40966 -0.25707,0.81904 -0.386,1.22817 -0.11671,0.16403 -0.23367,0.32778 -0.3509,0.49127 0.0353,-0.40914 0.0704,-0.81852 0.10527,-1.22817 0.0353,-0.44423 0.0704,-0.8887 0.10527,-1.33345 0.0821,-0.50271 0.16402,-1.00566 0.24563,-1.50889 0.14063,-0.42083 0.28099,-0.84191 0.42109,-1.26326 0.12893,-0.23368 0.2576,-0.46762 0.386,-0.70182 0.19911,-0.29216 0.39796,-0.58458 0.59654,-0.87726 0.2576,-0.33896 0.51492,-0.67816 0.77199,-1.01763 0.10554,-0.1401 0.21081,-0.28046 0.31582,-0.42109 -0.11671,-0.19859 -0.23367,-0.39743 -0.35091,-0.59654 -0.1401,-0.29216 -0.28046,-0.58458 -0.42109,-0.87727 -0.10501,-0.30386 -0.21028,-0.60797 -0.31581,-0.91235 -0.0465,-0.29217 -0.0933,-0.58458 -0.14036,-0.87727 -0.0582,-0.28047 -0.11671,-0.56118 -0.17546,-0.84217 0.0237,-0.43253 0.0471,-0.86531 0.0702,-1.29836 0.0704,-0.36234 0.14063,-0.72494 0.21055,-1.08781 z"
         inkscape:export-filename="Gavo.png"
         inkscape:export-xdpi="94.662178"
         inkscape:export-ydpi="94.662178" /><path
         style="opacity:1;fill:#ffffff;fill-opacity:1;stroke:#ffffff;stroke-width:0;stroke-linecap:square;stroke-linejoin:round;stroke-dasharray:none;stroke-opacity:1"
         d="m 96.940634,131.35423 c -0.06274,0.49565 -0.1882,1.48674 -0.181888,2.40888 0.0063,0.92214 0.144308,1.77521 0.288676,2.29584 0.144369,0.52064 0.294908,0.70881 0.476677,0.53309 0.18177,-0.17572 0.395038,-0.71516 0.639699,-1.13549 0.244662,-0.42034 0.520657,-0.72143 0.721497,-0.78401 0.200841,-0.0626 0.326291,0.11305 0.420308,0.35142 0.09402,0.23837 0.15674,0.53945 0.257231,0.70871 0.100491,0.16925 0.238473,0.20689 0.382573,0.10024 0.144103,-0.10664 0.294643,-0.35755 0.445223,-0.54578 0.15059,-0.18823 0.30113,-0.31368 0.42034,-0.40151 0.11922,-0.0878 0.20703,-0.13801 0.2509,0.006 0.0439,0.14443 0.0439,0.48315 0.006,0.82184 -0.0377,0.3387 -0.11293,0.67742 -0.1317,0.96602 -0.0188,0.28859 0.0189,0.52695 0.0691,0.82178 0.0502,0.29483 0.11291,0.64609 0.1694,0.89074 0.0565,0.24466 0.10666,0.38264 0.30103,0.20059 0.19438,-0.18204 0.5331,-0.68385 0.79029,-1.06021 0.25718,-0.37637 0.43282,-0.62728 0.70259,-0.88451 0.26977,-0.25722 0.63358,-0.52067 0.95977,-0.75276 0.32619,-0.2321 0.61473,-0.43282 0.88452,-0.57083 0.26978,-0.13801 0.52069,-0.21328 0.63978,-0.1504 0.11909,0.0629 0.10656,0.2636 0.0689,0.45802 -0.0376,0.19442 -0.10037,0.38259 0.0503,0.42011 0.15066,0.0375 0.51447,-0.0754 0.81556,-0.16947 0.3011,-0.0941 0.53945,-0.16936 0.77785,-0.22581 0.2384,-0.0564 0.47675,-0.0941 0.61461,-0.17552 0.13787,-0.0814 0.1755,-0.20688 0.0565,-0.37623 -0.11901,-0.16934 -0.395,-0.38261 -0.67102,-0.6335 -0.27603,-0.25089 -0.55202,-0.53943 -0.74018,-0.72761 -0.18816,-0.18819 -0.28855,-0.27603 -0.67124,-0.20718 -0.3827,0.0688 -1.0476,0.29467 -1.58085,0.58951 -0.53326,0.29485 -0.9347,0.65865 -1.22954,0.95349 -0.29483,0.29484 -0.48302,0.52066 -0.5771,0.42041 -0.0941,-0.10025 -0.0941,-0.52678 0.0125,-0.89698 0.10662,-0.3702 0.31989,-0.68383 0.49553,-0.92848 0.17565,-0.24465 0.31364,-0.42028 0.30127,-0.54568 -0.0124,-0.1254 -0.17546,-0.20067 -0.54562,-0.1694 -0.37016,0.0313 -0.94725,0.16927 -1.37385,0.32609 -0.42661,0.15682 -0.70261,0.33245 -0.89077,0.2699 -0.18816,-0.0626 -0.28852,-0.36364 -0.31996,-0.62087 -0.0314,-0.25724 0.006,-0.4705 -0.131736,-0.49572 -0.137933,-0.0252 -0.451565,0.13786 -0.790328,0.36369 -0.338763,0.22584 -0.702574,0.51437 -0.959762,0.72138 -0.257187,0.207 -0.407727,0.33245 -0.526879,0.2448 -0.119152,-0.0877 -0.206965,-0.38873 -0.275963,-0.62082 -0.069,-0.23209 -0.11918,-0.39519 -0.144318,-0.68376 -0.02514,-0.28857 -0.02514,-0.70257 -0.05644,-0.99109 -0.03131,-0.28853 -0.09403,-0.45161 -0.125451,-0.53331 -0.03142,-0.0817 -0.03146,-0.0817 -0.09421,0.41396 z"
         id="path23333"
         inkscape:path-effect="#path-effect23335"
         inkscape:original-d="m 97.003376,130.85857 c -0.12519,0.99135 -0.25065,1.98244 -0.37637,2.97327 0.13827,0.85337 0.27627,1.70644 0.414,2.55927 0.15082,0.18845 0.30136,0.37662 0.45164,0.56454 0.21354,-0.5392 0.42681,-1.07864 0.63982,-1.61836 0.27627,-0.30083 0.55226,-0.60192 0.828,-0.90327 0.12572,0.1759 0.25117,0.35153 0.37636,0.5269 0.063,0.30137 0.12572,0.60245 0.18818,0.90328 0.138271,0.0379 0.276261,0.0755 0.414001,0.11291 0.150813,-0.25065 0.301353,-0.50156 0.451633,-0.75273 0.15082,-0.12519 0.30136,-0.25064 0.45164,-0.37636 0.0881,-0.0499 0.1759,-0.1001 0.26346,-0.15055 2.6e-4,0.339 2.6e-4,0.67772 0,1.01618 -0.075,0.339 -0.15028,0.67772 -0.22582,1.01618 0.0379,0.23863 0.0755,0.47699 0.11291,0.71509 0.063,0.35155 0.12572,0.70281 0.18818,1.05382 0.0505,0.13827 0.10063,0.27626 0.15054,0.414 0.339,-0.50156 0.67772,-1.00337 1.01618,-1.50545 0.17591,-0.25065 0.35154,-0.50156 0.52691,-0.75273 0.36409,-0.26319 0.7279,-0.52664 1.09146,-0.79036 0.28881,-0.20047 0.57735,-0.40119 0.86563,-0.60218 0.25118,-0.075 0.50208,-0.15029 0.75272,-0.22582 -0.0123,0.20099 -0.0248,0.40172 -0.0376,0.60218 -0.0625,0.18845 -0.12519,0.37663 -0.18817,0.56454 0.36408,-0.11264 0.72789,-0.22555 1.09144,-0.33872 0.23864,-0.075 0.47699,-0.15028 0.71509,-0.22582 0.23864,-0.0374 0.477,-0.075 0.71509,-0.11291 0.0379,-0.12519 0.0755,-0.25064 0.11291,-0.37636 -0.27574,-0.21301 -0.55173,-0.42628 -0.828,-0.63982 -0.27574,-0.28829 -0.55173,-0.57683 -0.828,-0.86564 -0.1001,-0.0875 -0.20046,-0.17537 -0.30109,-0.26345 -0.66464,0.22609 -1.32954,0.4519 -1.99471,0.67745 -0.4012,0.36409 -0.80264,0.7279 -1.20436,1.09146 -0.18792,0.22608 -0.3761,0.4519 -0.56455,0.67745 2.7e-4,-0.42629 2.7e-4,-0.85282 0,-1.27963 0.21354,-0.31338 0.42681,-0.62701 0.63982,-0.94091 0.13827,-0.17538 0.27626,-0.35101 0.414,-0.52691 -0.16283,-0.075 -0.32592,-0.15028 -0.48927,-0.22582 -0.57684,0.13827 -1.15392,0.27627 -1.73127,0.414 -0.27574,0.17591 -0.55174,0.35154 -0.828,0.52691 -0.1001,-0.30083 -0.20046,-0.60192 -0.301093,-0.90327 0.0379,-0.21302 0.0755,-0.42628 0.112903,-0.63982 -0.313373,0.16336 -0.627004,0.32645 -0.940904,0.48927 -0.36356,0.28882 -0.72737,0.57736 -1.09146,0.86564 -0.15028,0.12572 -0.30082,0.25117 -0.45163,0.37636 -0.0876,-0.30083 -0.17537,-0.60191 -0.26346,-0.90327 -0.0499,-0.16283 -0.10009,-0.32592 -0.15054,-0.48927 2.6e-4,-0.41374 2.6e-4,-0.82774 0,-1.242 -0.0625,-0.16283 -0.12519,-0.32592 -0.18818,-0.48927 z" /><path
         style="opacity:1;fill:#ffffff;fill-opacity:1;stroke:#ffffff;stroke-width:0;stroke-linecap:square;stroke-linejoin:round;stroke-dasharray:none;stroke-opacity:1"
         d="m 112.30252,133.6374 c -0.13175,0.18194 -0.3952,0.54576 -0.68373,0.87191 -0.28852,0.32616 -0.60215,0.6147 -0.77155,0.80297 -0.1694,0.18828 -0.1945,0.27608 -0.0563,0.31364 0.13815,0.0376 0.43923,0.025 0.74662,0.0564 0.30739,0.0314 0.62103,0.10669 0.9284,0.22592 0.30737,0.11924 0.60845,0.28232 0.71497,0.21338 0.10653,-0.0689 0.0187,-0.37001 -0.0879,-0.63974 -0.1066,-0.26973 -0.23205,-0.50808 -0.1818,-0.60229 0.0502,-0.0942 0.27607,-0.044 0.52072,0.0564 0.24464,0.10042 0.50809,0.25096 0.80917,0.47054 0.30107,0.21958 0.63979,0.50811 0.94715,0.7904 0.30736,0.28229 0.58335,0.55829 0.85305,0.91586 0.26969,0.35757 0.53314,0.79665 0.75269,1.14165 0.21956,0.34499 0.39519,0.5959 0.45784,0.57081 0.0626,-0.0251 0.0125,-0.32618 0.044,-0.45171 0.0315,-0.12553 0.1444,-0.0754 0.18816,-0.20701 0.0438,-0.13166 0.0186,-0.44529 0.0752,-0.56453 0.0566,-0.11924 0.19461,-0.044 0.24465,-0.18819 0.05,-0.14422 0.0124,-0.50802 -0.006,-0.85304 -0.0188,-0.34501 -0.0188,-0.67119 -0.0251,-0.90327 -0.006,-0.23208 -0.0188,-0.37008 -0.0814,-0.50808 -0.0626,-0.138 -0.17552,-0.27599 -0.13785,-0.30744 0.0377,-0.0315 0.22587,0.0438 0.44538,0.21327 0.21952,0.16944 0.47042,0.43289 0.62718,0.63991 0.15675,0.20703 0.21948,0.35756 0.3323,0.28218 0.11282,-0.0754 0.27591,-0.37647 0.37002,-0.69004 0.0941,-0.31356 0.11921,-0.63974 0.23229,-0.74012 0.11308,-0.10039 0.3138,0.0251 0.47681,0.24467 0.163,0.21961 0.28845,0.53325 0.42647,0.84061 0.13801,0.30736 0.28856,0.60845 0.40145,0.85308 0.11289,0.24463 0.18816,0.43282 0.30098,0.36999 0.11282,-0.0628 0.26336,-0.37646 0.39509,-0.7528 0.13174,-0.37633 0.24464,-0.81541 0.33874,-1.21685 0.0941,-0.40145 0.16936,-0.76526 0.18194,-1.23568 0.0126,-0.47042 -0.0376,-1.0475 -0.10657,-1.48657 -0.069,-0.43908 -0.15678,-0.74017 -0.23212,-0.67748 -0.0753,0.0627 -0.13805,0.48921 -0.21333,0.97849 -0.0753,0.48928 -0.16309,1.04126 -0.41385,1.13536 -0.25076,0.0941 -0.66475,-0.2697 -1.03482,-0.55201 -0.37008,-0.2823 -0.69626,-0.48302 -0.91582,-0.58973 -0.21956,-0.10671 -0.33245,-0.11924 -0.35766,0.0252 -0.0252,0.14442 0.0375,0.44551 0.006,0.67747 -0.0314,0.23196 -0.15686,0.39505 -0.42014,0.38256 -0.26329,-0.0125 -0.66474,-0.20068 -1.03484,-0.32618 -0.37011,-0.1255 -0.70882,-0.18823 -0.9974,-0.20708 -0.28858,-0.0189 -0.52694,0.006 -0.53949,0.15068 -0.0125,0.14444 0.20073,0.40789 0.38887,0.70899 0.18814,0.30111 0.35123,0.63983 0.42643,0.97226 0.0752,0.33243 0.0627,0.6586 -0.13165,0.62724 -0.19432,-0.0314 -0.57067,-0.42026 -0.95956,-0.7214 -0.38889,-0.30115 -0.79033,-0.51441 -1.22315,-0.69636 -0.43283,-0.18194 -0.897,-0.33248 -1.21692,-0.42659 -0.31991,-0.0941 -0.49554,-0.13175 -0.58351,-0.1506 -0.088,-0.0189 -0.088,-0.019 -0.21976,0.16297 z"
         id="path23379"
         inkscape:path-effect="#path-effect23381"
         inkscape:original-d="m 112.43426,133.45547 c -0.26319,0.36408 -0.52665,0.7279 -0.79036,1.09146 -0.31338,0.28881 -0.62701,0.57735 -0.94091,0.86563 -0.0248,0.0881 -0.0499,0.1759 -0.0753,0.26346 0.30136,-0.0123 0.60244,-0.0248 0.90327,-0.0376 0.3139,0.0755 0.62753,0.15081 0.9409,0.22582 0.30137,0.16336 0.60245,0.32644 0.90328,0.48927 -0.0876,-0.30083 -0.17538,-0.60192 -0.26346,-0.90327 -0.12519,-0.23811 -0.25064,-0.47646 -0.37636,-0.71509 0.22609,0.0504 0.4519,0.10062 0.67745,0.15054 0.26373,0.15082 0.52718,0.30136 0.79037,0.45164 0.33899,0.28881 0.67771,0.57735 1.01618,0.86563 0.27627,0.27627 0.55226,0.55227 0.828,0.828 0.26372,0.43937 0.52717,0.87845 0.79036,1.31727 0.1759,0.25118 0.35153,0.50209 0.52691,0.75273 -0.0499,-0.30083 -0.1001,-0.60192 -0.15055,-0.90327 0.11318,0.0505 0.22608,0.10063 0.33873,0.15054 -0.0248,-0.31337 -0.0499,-0.627 -0.0753,-0.9409 0.13827,0.0755 0.27627,0.15081 0.41401,0.22582 -0.0374,-0.36357 -0.075,-0.72738 -0.11292,-1.09146 2.7e-4,-0.32592 2.7e-4,-0.6521 0,-0.97854 -0.0123,-0.13774 -0.0248,-0.27574 -0.0376,-0.414 -0.11265,-0.13774 -0.22555,-0.27574 -0.33873,-0.414 0.18845,0.0755 0.37663,0.15081 0.56455,0.22581 0.25118,0.26373 0.50208,0.52718 0.75272,0.79037 0.063,0.15081 0.12572,0.30135 0.18819,0.45163 0.16335,-0.30083 0.32644,-0.60191 0.48927,-0.90327 0.0254,-0.32592 0.0504,-0.6521 0.0753,-0.97854 0.201,0.12572 0.40172,0.25117 0.60218,0.37636 0.12572,0.31391 0.25118,0.62754 0.37637,0.94091 0.15081,0.30136 0.30135,0.60245 0.45163,0.90327 0.0755,0.18845 0.15081,0.37663 0.22582,0.56455 0.15081,-0.31338 0.30135,-0.62701 0.45163,-0.94091 0.11318,-0.43884 0.22609,-0.87792 0.33873,-1.31727 0.0755,-0.36356 0.15081,-0.72737 0.22582,-1.09146 -0.0499,-0.57683 -0.1001,-1.15391 -0.15055,-1.73127 -0.0875,-0.30083 -0.17537,-0.60191 -0.26345,-0.90327 -0.0625,0.42682 -0.12519,0.85335 -0.18818,1.27964 -0.0876,0.55227 -0.17537,1.10426 -0.26346,1.65599 -0.41374,-0.36356 -0.82773,-0.72737 -1.242,-1.09145 -0.32592,-0.20046 -0.65209,-0.40119 -0.97854,-0.60218 -0.11265,-0.0123 -0.22555,-0.0248 -0.33873,-0.0376 0.063,0.30136 0.12572,0.60245 0.18819,0.90328 -0.1252,0.16335 -0.25065,0.32644 -0.37637,0.48927 -0.40119,-0.18792 -0.80264,-0.3761 -1.20436,-0.56455 -0.33847,-0.0625 -0.67719,-0.12519 -1.01618,-0.18818 -0.2381,0.0254 -0.47646,0.0505 -0.71509,0.0753 0.21354,0.26373 0.42681,0.52717 0.63982,0.79037 0.16335,0.33899 0.32644,0.67771 0.48927,1.01618 -0.0123,0.32645 -0.0248,0.65262 -0.0376,0.97854 -0.3761,-0.38865 -0.75246,-0.77755 -1.12909,-1.16673 -0.4012,-0.21301 -0.80264,-0.42628 -1.20436,-0.63981 -0.46393,-0.15029 -0.9281,-0.30083 -1.39254,-0.45164 -0.17538,-0.0374 -0.35101,-0.075 -0.52691,-0.11291 z" /><path
         style="opacity:1;fill:#ffffff;fill-opacity:1;stroke:#ffffff;stroke-width:0;stroke-linecap:square;stroke-linejoin:round;stroke-dasharray:none;stroke-opacity:1"
         d="m 100.96788,130.25022 c 0.23851,0.18203 0.71524,0.54584 1.32997,0.77157 0.61474,0.22572 1.36745,0.31354 1.98841,0.30722 0.62096,-0.006 1.11022,-0.10667 1.34221,-0.28842 0.232,-0.18174 0.2069,-0.44518 0.069,-0.62091 -0.13786,-0.17573 -0.38874,-0.26355 -0.81534,-0.27616 -0.42659,-0.0126 -1.02876,0.0501 -1.57447,0.0752 -0.54571,0.0251 -1.03497,0.0126 -1.45524,-0.0188 -0.42027,-0.0313 -0.77153,-0.0815 -0.94731,-0.10664 -0.17579,-0.0251 -0.17577,-0.0251 0.0627,0.15688 z"
         id="path23425"
         inkscape:path-effect="#path-effect23427"
         inkscape:original-d="m 100.72937,130.0682 c 0.47699,0.36409 0.95372,0.7279 1.43018,1.09146 0.75301,0.0881 1.50572,0.1759 2.25818,0.26345 0.48955,-0.1001 0.97881,-0.20046 1.46781,-0.30109 -0.0248,-0.2632 -0.0499,-0.52664 -0.0753,-0.79036 -0.25064,-0.0876 -0.50154,-0.17537 -0.75271,-0.26346 -0.60193,0.063 -1.2041,0.12572 -1.80654,0.18818 -0.48902,-0.0123 -0.97828,-0.0248 -1.46782,-0.0376 -0.35102,-0.0499 -0.70228,-0.1001 -1.05382,-0.15055 z" /><path
         style="fill:#ffffff;fill-opacity:1;stroke:#ffffff;stroke-width:0;stroke-linecap:square;stroke-linejoin:round;stroke-dasharray:none;stroke-opacity:1"
         d="m 117.61792,130.29043 c -0.23851,0.18203 -0.71524,0.54584 -1.32997,0.77157 -0.61474,0.22572 -1.36745,0.31354 -1.98841,0.30723 -0.62096,-0.006 -1.11022,-0.10668 -1.34222,-0.28843 -0.232,-0.18174 -0.2069,-0.44518 -0.069,-0.62091 0.13786,-0.17573 0.38875,-0.26355 0.81535,-0.27616 0.42659,-0.0126 1.02876,0.0501 1.57447,0.0752 0.54571,0.0251 1.03497,0.0126 1.45524,-0.0188 0.42027,-0.0313 0.77153,-0.0815 0.94731,-0.10664 0.17579,-0.0251 0.17577,-0.0251 -0.0627,0.15688 z"
         id="path23425-5"
         inkscape:path-effect="#path-effect23427-9"
         inkscape:original-d="m 117.85643,130.10841 c -0.47699,0.36409 -0.95372,0.7279 -1.43018,1.09146 -0.75301,0.0881 -1.50572,0.1759 -2.25818,0.26345 -0.48955,-0.1001 -0.97881,-0.20046 -1.46782,-0.30109 0.0248,-0.2632 0.0499,-0.52664 0.0753,-0.79036 0.25064,-0.0876 0.50155,-0.17537 0.75272,-0.26346 0.60193,0.063 1.2041,0.12572 1.80654,0.18818 0.48902,-0.0123 0.97828,-0.0248 1.46782,-0.0376 0.35102,-0.0499 0.70228,-0.1001 1.05382,-0.15055 z" /><path
         style="opacity:1;fill:#ffffff;fill-opacity:1;stroke:#ffffff;stroke-width:0;stroke-linecap:square;stroke-linejoin:round;stroke-dasharray:none;stroke-opacity:1"
         d="m 106.41245,128.86384 c 0.53965,0.8283 1.07911,1.65631 1.56833,2.81678 0.48922,1.16047 0.9283,2.65335 1.1478,3.2806 0.2195,0.62724 0.2195,0.38888 0.2195,-0.79668 0,-1.18557 0,-3.31825 0,-4.37834 0,-1.0601 0,-1.0476 0,-1.0353"
         id="path23539"
         inkscape:path-effect="#path-effect23541"
         inkscape:original-d="m 106.41245,128.86384 c 0.53972,0.82826 1.07917,1.65627 1.61836,2.484 0.43936,1.4932 0.87845,2.98608 1.31727,4.47872 0.0128,-0.2381 2.6e-4,-0.47646 0,-0.71509 2.6e-4,-2.1325 2.6e-4,-4.26518 0,-6.39817 2.6e-4,0.0128 2.6e-4,0.0253 0,0.0376" /><path
         style="fill:#ffffff;fill-opacity:1;stroke:#ffffff;stroke-width:0;stroke-linecap:square;stroke-linejoin:round;stroke-dasharray:none;stroke-opacity:1"
         d="m 112.18636,128.86684 c -0.53965,0.8283 -1.07911,1.65631 -1.56833,2.81678 -0.48922,1.16047 -0.9283,2.65335 -1.1478,3.2806 -0.2195,0.62724 -0.2195,0.38888 -0.2195,-0.79668 0,-1.18557 0,-3.31825 0,-4.37835 0,-1.06009 0,-1.04759 0,-1.03529"
         id="path23539-7"
         inkscape:path-effect="#path-effect23541-9"
         inkscape:original-d="m 112.18636,128.86684 c -0.53972,0.82826 -1.07917,1.65627 -1.61836,2.484 -0.43936,1.4932 -0.87845,2.98608 -1.31727,4.47872 -0.0128,-0.2381 -2.6e-4,-0.47646 0,-0.71509 -2.6e-4,-2.1325 -2.6e-4,-4.26518 0,-6.39817 -2.6e-4,0.0128 -2.6e-4,0.0253 0,0.0376" /><path
         style="opacity:1;fill:#ffffff;fill-opacity:1;stroke:#4cb0f9;stroke-width:0;stroke-linecap:square;stroke-linejoin:round;stroke-dasharray:none;stroke-opacity:1"
         d="m 99.225785,124.57107 c -0.182321,-0.45529 -1.871309,-4.94616 -3.753303,-9.9797 -1.881995,-5.03355 -4.14154,-11.07611 -5.021205,-13.42792 -0.879669,-2.351795 -1.542601,-4.430433 -1.473186,-4.619174 0.19247,-0.523325 0.902297,-0.409321 1.289391,0.207085 0.19005,0.302637 3.136767,6.569489 6.548255,13.926349 l 6.202713,13.37608 -0.54532,0.21633 c -0.29993,0.11899 -0.57743,0.21633 -0.61667,0.21633 -0.0392,0 -0.22159,-0.38494 -0.40523,-0.85541 -0.69912,-1.79107 -5.415563,-11.74799 -5.51547,-11.64375 -0.05764,0.0601 0.973157,2.97405 2.290667,6.47534 2.160373,5.74119 2.360303,6.39396 2.037073,6.65111 -0.540753,0.4302 -0.676569,0.35917 -1.037715,-0.54267 z"
         id="path27337" /><path
         style="opacity:1;fill:#ffffff;fill-opacity:1;stroke:#4cb0f9;stroke-width:0;stroke-linecap:square;stroke-linejoin:round;stroke-dasharray:none;stroke-opacity:1"
         d="m 103.37371,123.17483 c -0.11733,-0.60697 -0.71683,-2.80567 -1.77964,-6.52691 -0.45973,-1.60965 -0.51229,-2.24247 -0.51229,-6.168 0,-4.99632 -0.16355,-5.93799 -1.588495,-9.14638 -1.099886,-2.476505 -1.343849,-4.678994 -0.710073,-6.410508 0.706062,-1.929013 2.223448,-2.25117 1.679408,-0.356559 -0.528463,1.840341 -0.3619,2.602829 1.27579,5.840417 2.00863,3.97091 2.40271,5.56682 2.39011,9.67917 -0.0106,3.45197 0.0468,3.73073 1.76574,8.58539 0.57785,1.63192 1.11971,3.35129 1.20413,3.82079 0.14826,0.82461 0.13219,0.85365 -0.47206,0.85336 -0.57868,-2.4e-4 -0.65561,-0.10712 -1.0269,-1.42568 -0.22075,-0.78395 -0.8472,-2.60166 -1.39212,-4.03937 -1.09234,-2.88207 -1.66664,-5.7048 -1.45692,-7.16086 0.11498,-0.79839 0.0892,-0.89981 -0.16496,-0.64933 -0.21822,0.21505 -0.29648,0.90649 -0.28399,2.50919 0.0151,1.93837 0.12721,2.56541 0.90529,5.06367 0.99509,3.19507 1.46924,5.34013 1.28883,5.83067 -0.21802,0.5928 -0.9892,0.38722 -1.12185,-0.29906 z"
         id="path27339" /><path
         style="opacity:1;fill:#ffffff;fill-opacity:1;stroke:#4cb0f9;stroke-width:0;stroke-linecap:square;stroke-linejoin:round;stroke-dasharray:none;stroke-opacity:1"
         d="m 107.53255,122.14834 c 0.0563,-0.5332 0.21023,-4.30553 0.3421,-8.38295 0.48189,-14.900305 0.77193,-20.986372 1.01209,-21.23695 0.41165,-0.429513 1.01364,-0.125776 1.17639,0.593566 0.0851,0.376186 0.26587,4.020044 0.40164,8.097464 0.3966,11.90922 0.66548,19.17906 0.76142,20.58671 0.0888,1.30334 0.0855,1.31162 -0.51579,1.31162 h -0.60518 l -0.13673,-2.10999 c -0.0752,-1.16051 -0.20187,-4.29127 -0.28148,-6.95728 -0.0797,-2.66601 -0.21351,-4.84728 -0.29757,-4.84728 -0.084,0 -0.21796,2.18127 -0.29756,4.84728 -0.0796,2.66601 -0.20628,5.79677 -0.28148,6.95728 l -0.13673,2.10999 h -0.62174 c -0.60175,0 -0.61844,-0.0312 -0.51938,-0.96946 z"
         id="path27341" /><path
         style="opacity:1;fill:#ffffff;fill-opacity:1;stroke:#4cb0f9;stroke-width:0;stroke-linecap:square;stroke-linejoin:round;stroke-dasharray:none;stroke-opacity:1"
         d="m 118.51941,125.11682 c -0.3286,-0.26131 -0.13884,-0.88239 2.03305,-6.65419 1.31751,-3.50129 2.34744,-6.4161 2.28874,-6.47735 -0.1015,-0.1059 -4.81271,9.84372 -5.51436,11.64576 -0.1832,0.47047 -0.34699,0.85389 -0.36399,0.85204 -0.017,-0.002 -0.6212,-0.19925 -1.34266,-0.43866 -0.8443,-0.28021 -1.28556,-0.54319 -1.23829,-0.738 0.0404,-0.16647 0.16413,-2.04769 0.27498,-4.1805 0.22717,-4.37115 0.46164,-5.84704 1.20938,-7.61296 0.6986,-1.64985 0.65349,-1.90592 -0.13796,-0.78304 -0.97097,1.3776 -1.27552,2.50936 -1.76555,6.56112 -0.24343,2.01286 -0.56595,4.17298 -0.71667,4.80028 -0.24898,1.03613 -0.33636,1.14695 -0.95461,1.21065 l -0.68056,0.0701 0.29385,-1.01872 c 0.16161,-0.5603 0.40499,-2.23422 0.54084,-3.71982 0.34606,-3.78441 0.7265,-5.2539 2.20524,-8.51785 1.71334,-3.78179 2.17178,-5.71371 2.17178,-9.15223 0,-2.192475 0.0872,-2.937325 0.46967,-4.012428 0.56828,-1.597349 2.03536,-3.259089 2.87731,-3.259089 0.86186,0 0.87603,0.326654 0.0584,1.347655 -1.2168,1.519607 -1.32403,2.148134 -0.99903,5.855762 0.34654,3.95332 0.0575,6.08937 -1.2048,8.90409 -1.50096,3.34679 -1.63808,3.9699 -1.96459,8.92719 -0.16733,2.54049 -0.36506,4.72178 -0.4394,4.84728 -0.0744,0.12553 -0.0461,0.22823 0.0629,0.22823 0.10889,0 2.29588,-4.5422 4.85988,-10.09376 5.73119,-12.40916 7.81539,-16.825839 8.12175,-17.211 0.31972,-0.40195 0.98107,-0.374453 1.13616,0.04723 0.0695,0.188925 -0.71064,2.575505 -1.73361,5.30351 -1.02297,2.728 -2.93291,7.83416 -4.24432,11.34701 -4.04911,10.84628 -4.52464,12.06505 -4.73617,12.13862 -0.11276,0.0392 -0.36806,-0.0584 -0.5674,-0.21692 z"
         id="path27343" /><path
         style="opacity:1;fill:#ffffff;fill-opacity:1;stroke:#4cb0f9;stroke-width:0;stroke-linecap:square;stroke-linejoin:round;stroke-dasharray:none;stroke-opacity:1"
         d="m 122.30352,127.46391 -0.52171,-0.4106 0.44212,-0.65614 c 0.24317,-0.36087 1.25418,-2.33569 2.24667,-4.38848 1.5181,-3.13986 2.02682,-3.96886 3.20469,-5.22227 0.77008,-0.81947 1.36531,-1.52628 1.32271,-1.57072 -0.18089,-0.18874 -2.18759,1.41324 -2.85767,2.28133 -0.40101,0.51951 -1.4335,2.21882 -2.29441,3.77623 -0.86091,1.55741 -1.92415,3.32264 -2.36276,3.92273 -0.70303,0.96188 -0.85146,1.06185 -1.25331,0.84419 -0.25069,-0.13578 -0.48714,-0.27422 -0.52544,-0.30763 -0.0383,-0.0334 0.2724,-0.52823 0.69041,-1.09961 0.41801,-0.57138 1.26612,-2.01552 1.88468,-3.20919 1.59629,-3.08045 2.79214,-4.63712 5.34028,-6.95164 2.84778,-2.58667 3.83847,-3.94403 5.14164,-7.04459 0.57932,-1.37832 1.32985,-2.88433 1.66784,-3.3467 1.10904,-1.5171 3.47414,-2.85038 4.47083,-2.52031 0.74149,0.24554 0.49824,0.69985 -0.80788,1.50886 -1.49913,0.92856 -1.81802,1.4639 -2.9439,4.94212 -1.21639,3.75785 -1.84941,4.80159 -4.69678,7.74423 -2.77228,2.86503 -3.33432,3.6922 -5.3898,7.93235 -0.79064,1.63097 -1.6173,3.24013 -1.83701,3.57592 -0.39255,0.59992 -0.40855,0.6034 -0.9212,0.19992 z"
         id="path27345" /><path
         style="opacity:1;fill:#ffffff;fill-opacity:1;stroke:#4cb0f9;stroke-width:0;stroke-linecap:square;stroke-linejoin:round;stroke-dasharray:none;stroke-opacity:1"
         d="m 125.25154,130.20349 -0.42529,-0.49091 3.94329,-4.15279 c 4.40387,-4.63784 5.55861,-5.92324 5.43602,-6.05116 -0.046,-0.048 -2.37329,2.01615 -5.17186,4.58687 -4.982,4.5764 -5.09842,4.66624 -5.57179,4.30033 -0.26591,-0.20555 -0.41743,-0.43509 -0.3367,-0.51013 5.68288,-5.28117 22.17785,-20.29396 22.47081,-20.45163 0.55793,-0.3003 0.95929,-0.11545 0.95929,0.44193 0,0.29735 -2.92128,3.5725 -8.27411,9.27638 -4.55076,4.84923 -9.24841,9.87995 -10.43923,11.17939 l -2.16513,2.36262 z"
         id="path27347" /><path
         style="opacity:1;fill:#ffffff;fill-opacity:1;stroke:#4cb0f9;stroke-width:0;stroke-linecap:square;stroke-linejoin:round;stroke-dasharray:none;stroke-opacity:1"
         d="m 127.76145,133.62575 c -0.31046,-0.60527 -0.3305,-0.56676 0.64619,-1.24115 0.47988,-0.33135 1.83262,-1.49272 3.00607,-2.58083 2.4642,-2.28499 4.49156,-3.71408 6.12341,-4.31643 0.63128,-0.23301 1.14777,-0.4882 1.14777,-0.56708 0,-0.28275 -2.29035,0.29788 -3.31771,0.84108 -0.57634,0.30471 -2.07927,1.37442 -3.33984,2.37711 -2.67168,2.12511 -4.87688,3.64744 -5.28359,3.64744 -0.15749,0 -0.39006,-0.20222 -0.51683,-0.44936 -0.19994,-0.38979 -0.12102,-0.50764 0.59534,-0.88894 0.45419,-0.24177 1.90719,-1.32288 3.22886,-2.40247 2.81164,-2.29664 4.46222,-3.25088 7.56964,-4.3762 3.52654,-1.2771 5.27682,-2.34132 7.5135,-4.56847 1.13698,-1.13213 2.49851,-2.23994 3.2252,-2.62421 1.42498,-0.7535 3.43672,-1.06473 4.38786,-0.67882 0.82506,0.33474 0.713,1.02242 -0.18175,1.11534 -0.3597,0.0373 -1.16088,0.21695 -1.78042,0.39909 -0.99327,0.29201 -1.35508,0.59274 -3.06072,2.54391 -3.20276,3.66381 -4.69043,4.85814 -7.32915,5.88399 -2.9127,1.13237 -3.33811,1.33693 -4.7711,2.29417 -0.78158,0.5221 -2.25728,1.71406 -3.27935,2.64877 -2.08827,1.90985 -3.90833,3.38427 -4.17758,3.38427 -0.0987,0 -0.28133,-0.19854 -0.4058,-0.44121 z"
         id="path27349" /><path
         style="opacity:1;fill:#ffffff;fill-opacity:1;stroke:#4cb0f9;stroke-width:0;stroke-linecap:square;stroke-linejoin:round;stroke-dasharray:none;stroke-opacity:1"
         d="m 129.4276,137.2134 c -0.0694,-0.2768 -0.10549,-0.52431 -0.0801,-0.55 0.0253,-0.0257 2.68713,-1.23797 5.91521,-2.69397 3.22808,-1.45599 6.06494,-2.75652 6.30413,-2.8901 1.25954,-0.70332 -0.33425,-0.20589 -5.84718,1.82494 -3.35916,1.23743 -6.31248,2.31469 -6.56294,2.39388 -0.34061,0.10774 -0.51361,0.011 -0.68644,-0.38512 -0.22965,-0.52588 -0.14172,-0.56189 14.29718,-5.85438 13.51737,-4.95472 14.55342,-5.29899 14.88998,-4.94782 0.33657,0.35116 0.3318,0.40761 -0.0685,0.81118 -0.23666,0.23857 -1.46329,0.89499 -2.72584,1.45873 -1.26254,0.56373 -3.42691,1.53905 -4.80971,2.16739 -1.38278,0.62832 -6.48907,2.94829 -11.3473,5.15548 -4.85822,2.20719 -8.90494,4.01307 -8.99268,4.01307 -0.0878,0 -0.21632,-0.22647 -0.2857,-0.50328 z"
         id="path27351" /><path
         style="opacity:1;fill:#ffffff;fill-opacity:1;stroke:#4cb0f9;stroke-width:0;stroke-linecap:square;stroke-linejoin:round;stroke-dasharray:none;stroke-opacity:1"
         d="m 131.12004,145.7416 c -0.27053,-0.04 -0.49189,-0.21343 -0.49189,-0.3852 0,-0.43157 0.9092,-0.52606 7.63274,-0.79333 5.38233,-0.21394 6.15852,-0.28849 5.89255,-0.566 -0.0562,-0.0586 -3.0978,-0.2246 -6.75909,-0.36878 -3.6613,-0.14419 -6.69572,-0.29924 -6.74318,-0.34457 -0.0474,-0.0453 -0.1336,-0.59619 -0.19143,-1.22414 -0.0777,-0.84345 -0.0265,-1.16685 0.1956,-1.23789 0.16541,-0.0529 1.77644,-0.58211 3.58008,-1.17604 4.87602,-1.60562 6.17634,-1.92075 7.9433,-1.92505 1.1849,-0.002 1.5791,-0.0784 1.51077,-0.28905 -0.0674,-0.20756 -0.80088,-0.28229 -2.69634,-0.27466 -2.339,0.01 -2.90416,0.099 -5.5553,0.88146 -3.29413,0.97214 -5.30809,1.26928 -5.57291,0.82221 -0.19922,-0.33635 0.24769,-0.67924 0.89172,-0.68416 0.25105,-0.002 1.87433,-0.41708 3.60728,-0.92255 3.0953,-0.90287 3.25505,-0.92462 9.06655,-1.23496 l 5.91572,-0.31591 2.67974,-1.0459 c 3.07422,-1.19989 4.53309,-1.45072 6.12292,-1.05278 1.09297,0.27358 2.21198,0.97633 2.21198,1.38917 0,0.12181 -0.80939,0.14911 -1.93804,0.0655 l -1.93803,-0.14353 -2.64176,1.28017 c -4.55765,2.20859 -4.99782,2.31593 -10.86269,2.64896 -3.43439,0.19501 -3.57844,0.22451 -7.92507,1.62251 -2.43491,0.78313 -4.42711,1.49638 -4.42711,1.58501 0,0.26582 2.79768,0.42889 15.52222,0.90474 13.02575,0.4871 15.01299,0.61269 15.21981,0.96186 0.43164,0.72869 -0.7313,0.82902 -16.53155,1.42611 -11.89003,0.44933 -13.12331,0.48501 -13.71859,0.39679 z"
         id="path27355" /><path
         style="opacity:1;fill:#ffffff;fill-opacity:1;stroke:#4cb0f9;stroke-width:0;stroke-linecap:square;stroke-linejoin:round;stroke-dasharray:none;stroke-opacity:1"
         d="m 158.92264,154.83729 c -1.30207,-1.07964 -2.06272,-1.23982 -4.80618,-1.01209 -5.10972,0.42414 -7.32022,0.13274 -10.67817,-1.40772 -2.54166,-1.16599 -3.94265,-1.44961 -8.36067,-1.69253 -2.16437,-0.119 -4.25379,-0.28432 -4.64318,-0.36735 -0.63199,-0.13476 -0.6932,-0.21527 -0.57045,-0.75028 0.0757,-0.32962 0.14825,-0.60849 0.16141,-0.6197 0.0131,-0.011 0.86012,0.0616 1.88219,0.16167 1.02206,0.10015 3.2848,0.27629 5.02833,0.39145 2.4584,0.1624 3.51357,0.33726 4.70038,0.77892 0.8417,0.31324 1.72712,0.64207 1.96761,0.73074 0.30811,0.11361 0.24354,-0.0131 -0.21863,-0.42904 -1.08204,-0.97379 -2.77075,-1.48633 -6.09014,-1.84842 -1.7006,-0.18552 -3.95284,-0.50353 -5.00496,-0.70671 -1.89137,-0.36525 -1.91295,-0.37699 -1.91295,-1.0408 0,-0.53348 0.0786,-0.64654 0.38259,-0.55035 1.06641,0.33744 2.54356,0.57954 4.3178,0.70767 3.64007,0.26288 5.85569,0.82907 8.96353,2.29057 3.28485,1.54475 4.13272,1.74371 8.19836,1.92384 3.17384,0.14062 4.04219,0.25636 5.09502,0.6791 1.56805,0.62962 2.99402,1.97615 2.99402,2.82723 0,0.79085 -0.39471,0.77228 -1.40591,-0.0662 z"
         id="path27357" /><path
         style="opacity:1;fill:#ffffff;fill-opacity:1;stroke:#4cb0f9;stroke-width:0;stroke-linecap:square;stroke-linejoin:round;stroke-dasharray:none;stroke-opacity:1"
         d="m 149.61603,161.74971 c -3.90788,-1.44484 -8.92527,-3.29558 -11.14976,-4.11276 -11.25734,-4.13547 -10.2726,-3.70926 -10.002,-4.32892 0.13302,-0.30463 0.34731,-0.51275 0.47619,-0.46248 3.73239,1.45571 12.87859,4.7159 12.96809,4.62252 0.0676,-0.0705 -0.21202,-0.27505 -0.62127,-0.4546 -1.25084,-0.54877 -10.76099,-4.85789 -11.40509,-5.16772 -0.46965,-0.22592 -0.57324,-0.39663 -0.46474,-0.76586 0.0767,-0.26133 0.16851,-0.50949 0.20385,-0.55149 0.0567,-0.0673 8.30516,3.64705 23.05545,10.38222 2.58522,1.18044 4.83951,2.29053 5.00955,2.46684 0.25336,0.26272 0.25838,0.38441 0.0279,0.6742 -0.1547,0.19448 -0.44138,0.34717 -0.63708,0.33931 -0.19571,-0.007 -3.55318,-1.19642 -7.46107,-2.64126 z"
         id="path27359" /><path
         style="opacity:1;fill:#ffffff;fill-opacity:1;stroke:#4cb0f9;stroke-width:0;stroke-linecap:square;stroke-linejoin:round;stroke-dasharray:none;stroke-opacity:1"
         d="m 150.9132,172.62765 c -0.86317,-1.4637 -1.45865,-1.81602 -5.01376,-2.96666 -3.83565,-1.24139 -5.71757,-2.35498 -8.00159,-4.73475 -2.13239,-2.22179 -3.68747,-3.31477 -6.58235,-4.62634 -1.17738,-0.53344 -2.9005,-1.37768 -3.82916,-1.87611 l -1.68845,-0.90621 0.37672,-0.52941 0.37672,-0.52941 1.42105,0.78172 c 0.78158,0.42994 2.44003,1.23691 3.68545,1.79327 2.83595,1.26685 4.3646,2.22398 5.73501,3.59082 0.72899,0.72711 1.07343,0.94983 1.07343,0.69414 0,-0.20709 -0.6154,-0.99682 -1.36756,-1.75498 -1.01762,-1.02572 -2.06658,-1.75344 -4.09918,-2.84385 -3.40634,-1.82736 -5.46439,-3.1627 -5.46439,-3.54549 0,-0.6988 0.56312,-0.79965 1.34996,-0.24178 0.42639,0.30232 1.79739,1.08402 3.04665,1.73712 3.44995,1.80361 4.44963,2.5493 7.2997,5.44508 3.0735,3.12278 4.0723,3.87521 6.38119,4.80717 2.81815,1.13753 3.96326,1.76935 4.98125,2.74838 1.16119,1.11678 1.96679,2.71753 1.77303,3.523 -0.20993,0.87272 -0.72326,0.67296 -1.45372,-0.56571 z"
         id="path27361" /><path
         style="opacity:1;fill:#ffffff;fill-opacity:1;stroke:#4cb0f9;stroke-width:0;stroke-linecap:square;stroke-linejoin:round;stroke-dasharray:none;stroke-opacity:1"
         d="m 142.03343,177.71133 c -2.02205,-1.85537 -6.97221,-6.39232 -11.00033,-10.08211 -4.02813,-3.68977 -7.46486,-6.84527 -7.63719,-7.01219 -0.271,-0.2625 -0.26059,-0.36429 0.077,-0.7535 0.38305,-0.44164 0.4718,-0.37493 4.77062,3.5856 5.86169,5.40036 6.14964,5.65509 6.0477,5.34939 -0.0925,-0.2774 -2.19089,-2.5863 -6.69863,-7.37064 -2.63019,-2.79158 -2.688,-2.87453 -2.30677,-3.31011 0.38264,-0.43722 0.50329,-0.32705 5.6342,5.1444 2.88375,3.07515 7.58816,8.08117 10.45424,11.12445 4.09743,4.35077 5.19616,5.64208 5.14139,6.04253 -0.14433,1.05524 -0.81025,0.65145 -4.48223,-2.71782 z"
         id="path27363" /><path
         style="opacity:1;fill:#ffffff;fill-opacity:1;stroke:#4cb0f9;stroke-width:0;stroke-linecap:square;stroke-linejoin:round;stroke-dasharray:none;stroke-opacity:1"
         d="m 72.369316,180.90504 c -0.236218,-0.24646 -0.167136,-0.9317 0.12753,-1.26498 0.2908,-0.3289 7.003911,-7.47904 15.486143,-16.49427 4.95184,-5.263 5.168645,-5.46125 5.488216,-5.01837 0.3167,0.43891 0.108193,0.70261 -4.332561,5.47946 -2.5659,2.76011 -4.666832,5.11548 -4.668739,5.23419 -0.0019,0.11875 0.316275,-0.0948 0.707062,-0.47431 0.390788,-0.37958 2.741463,-2.54981 5.223723,-4.82272 4.432887,-4.05902 4.52016,-4.12454 4.904399,-3.68154 0.338277,0.39001 0.348813,0.49192 0.07787,0.75327 -0.172325,0.16622 -4.44529,4.08538 -9.495477,8.70923 -5.050185,4.62386 -9.991922,9.15516 -10.981634,10.06957 -1.700426,1.57105 -2.195786,1.86599 -2.53654,1.51047 z"
         id="path27377" /><path
         style="opacity:1;fill:#ffffff;fill-opacity:1;stroke:#4cb0f9;stroke-width:0;stroke-linecap:square;stroke-linejoin:round;stroke-dasharray:none;stroke-opacity:1"
         d="m 65.793329,172.32547 c -0.676908,-0.52888 -0.297147,-1.07697 0.746207,-1.07697 1.581661,0 2.377266,-0.55646 5.356097,-3.74617 3.156267,-3.3797 4.367869,-4.24609 7.568863,-5.41238 2.565627,-0.93477 3.992712,-1.8667 7.125334,-4.653 1.417352,-1.26066 2.902558,-2.52942 3.300461,-2.81946 0.699727,-0.51005 0.733565,-0.51343 1.031504,-0.10295 0.435206,0.59948 0.431654,0.60695 -0.687972,1.44588 -0.555457,0.4162 -1.948231,1.62673 -3.095053,2.69004 -2.34903,2.17798 -4.184593,3.48985 -5.692856,4.06865 -1.976677,0.75858 -1.68263,1.05143 0.412031,0.41037 1.481624,-0.45343 2.718136,-1.23627 5.533561,-3.50325 1.216918,-0.97987 2.744427,-2.10856 3.394474,-2.50821 1.166354,-0.71706 1.18743,-0.72084 1.602547,-0.28772 0.415114,0.43313 0.408051,0.4466 -0.537215,1.02459 -0.526823,0.32215 -1.975478,1.41783 -3.219236,2.43485 -2.894238,2.36664 -4.330811,3.19394 -7.56027,4.3538 -3.668368,1.31751 -4.921785,2.07974 -7.34433,4.46621 -2.549875,2.51192 -4.021518,3.34871 -6.090831,3.46344 -0.99585,0.0552 -1.551163,-0.0195 -1.843316,-0.24766 z"
         id="path27379" /><path
         style="opacity:1;fill:#ffffff;fill-opacity:1;stroke:#4cb0f9;stroke-width:0;stroke-linecap:square;stroke-linejoin:round;stroke-dasharray:none;stroke-opacity:1"
         d="m 61.064699,164.05166 c -0.536656,-0.67469 -1.955944,0.0299 20.630088,-10.24139 4.066868,-1.84947 7.424172,-3.32731 7.460673,-3.28409 0.0365,0.0432 0.129192,0.29238 0.205977,0.55371 0.108487,0.36923 0.0049,0.53994 -0.464744,0.76586 -0.64411,0.30983 -10.154253,4.61895 -11.405088,5.16772 -0.409253,0.17955 -0.688821,0.38412 -0.621269,0.4546 0.0895,0.0934 9.235701,-3.16681 12.96808,-4.62252 0.128885,-0.0503 0.348133,0.16919 0.487215,0.48768 0.139082,0.3185 0.217767,0.57909 0.174855,0.57909 -0.07434,0 -5.877777,2.12649 -21.526916,7.88788 -3.891743,1.43279 -7.200029,2.60507 -7.351749,2.60507 -0.151719,0 -0.402424,-0.15913 -0.557122,-0.35361 z"
         id="path27381" /><path
         style="opacity:1;fill:#ffffff;fill-opacity:1;stroke:#4cb0f9;stroke-width:0;stroke-linecap:square;stroke-linejoin:round;stroke-dasharray:none;stroke-opacity:1"
         d="m 60.308626,154.85387 c -1.011483,-0.27899 -2.008781,-0.88348 -2.166901,-1.31342 -0.239542,-0.65132 0.202021,-0.87421 1.146791,-0.57886 1.788365,0.55905 2.786994,0.36589 5.679791,-1.09864 4.226562,-2.13976 4.923863,-2.31681 9.878734,-2.50827 l 4.263146,-0.16473 3.716586,-1.27562 c 5.649184,-1.93893 5.574879,-1.92659 5.574879,-0.92562 0,0.39303 -0.153598,0.56036 -0.601213,0.65492 -0.330667,0.0699 -2.421246,0.75454 -4.645735,1.52155 -3.543097,1.22166 -4.309634,1.40823 -6.182967,1.50493 -1.176147,0.0607 -2.103257,0.14711 -2.060242,0.19199 0.04301,0.0449 0.599891,0.18482 1.237506,0.31099 1.460647,0.28903 3.042562,0.0386 7.131145,-1.12932 1.692263,-0.48335 3.621957,-0.9499 4.288202,-1.03676 1.17587,-0.15328 1.214492,-0.14081 1.318305,0.42582 0.09951,0.54313 0.03698,0.59373 -0.89955,0.72791 -0.553575,0.0793 -2.187062,0.50755 -3.629973,0.95164 -3.742065,1.15171 -5.763498,1.4244 -9.402101,1.26832 -3.79457,-0.16277 -5.297554,0.0905 -8.583749,1.44665 -2.583926,1.06631 -4.650082,1.41615 -6.062654,1.02652 z"
         id="path27383" /><path
         style="opacity:1;fill:#ffffff;fill-opacity:1;stroke:#4cb0f9;stroke-width:0;stroke-linecap:square;stroke-linejoin:round;stroke-dasharray:none;stroke-opacity:1"
         d="m 78.345006,145.66541 c -2.585216,-0.10614 -8.328664,-0.33832 -12.76322,-0.51598 -6.783294,-0.27174 -8.117794,-0.38036 -8.40917,-0.68437 -0.308653,-0.32204 -0.31047,-0.39879 -0.0167,-0.70531 0.266936,-0.27852 1.492245,-0.38628 6.441564,-0.56658 5.605977,-0.2042 12.235158,-0.45911 21.142241,-0.81298 l 3.443308,-0.13681 v 0.57766 c 0,0.76352 -0.09715,0.776 -7.433173,0.95377 -3.306671,0.0802 -6.14601,0.22303 -6.309644,0.31754 -0.163634,0.0945 1.803972,0.24067 4.372455,0.3248 2.568483,0.0841 5.727559,0.21659 7.020168,0.29438 2.284966,0.1375 2.350194,0.15635 2.350194,0.67922 0,0.53647 -0.0063,0.53772 -2.568819,0.50271 -1.41285,-0.0193 -4.683993,-0.12194 -7.269206,-0.22805 z"
         id="path27385" /><path
         style="opacity:1;fill:#ffffff;fill-opacity:1;stroke:#4cb0f9;stroke-width:0;stroke-linecap:square;stroke-linejoin:round;stroke-dasharray:none;stroke-opacity:1"
         d="m 87.071699,141.49992 c -0.0501,-0.052 -1.717344,-0.30839 -3.704983,-0.56969 -4.354779,-0.57251 -5.471196,-0.86134 -8.434627,-2.18213 -3.40778,-1.51882 -4.19592,-1.70474 -8.681716,-2.04784 -3.605642,-0.27578 -4.255826,-0.38668 -5.253609,-0.89603 -1.431667,-0.73083 -2.389382,-1.74302 -2.29145,-2.42176 0.07093,-0.49159 0.105436,-0.48278 1.242691,0.31754 l 1.169739,0.82316 h 4.886283 c 5.38789,0 6.340811,0.13714 8.902672,1.28124 0.944151,0.42164 2.304263,0.9255 3.02247,1.11969 1.183734,0.32004 8.012764,1.00451 10.136743,1.01601 0.758351,0.004 0.826667,-0.0366 0.546556,-0.32585 -0.176068,-0.18178 -3.389371,-1.71589 -7.140673,-3.40911 -8.313557,-3.75247 -17.951221,-8.20842 -19.35953,-8.95083 -1.01093,-0.53294 -1.243981,-0.83652 -0.84143,-1.09611 0.108369,-0.0699 0.870812,0.0884 1.694327,0.35175 2.353528,0.7526 27.058208,9.80318 27.231026,9.97612 0.08517,0.0852 0.07168,0.2954 -0.02999,0.46702 -0.150433,0.25397 -0.60658,0.1619 -2.450403,-0.49461 -1.246058,-0.44367 -4.162121,-1.48312 -6.48014,-2.30991 -2.31802,-0.82677 -4.331301,-1.50322 -4.47396,-1.50322 -0.73747,0 0.915547,0.86284 6.347366,3.31323 3.281575,1.48038 6.007935,2.76155 6.058586,2.84705 0.106445,0.1797 -0.247077,1.57466 -0.504748,1.99174 -0.136735,0.22133 -0.975003,0.23187 -3.879769,0.0487 -4.556097,-0.28719 -6.33448,-0.54602 -7.933715,-1.15469 -1.944847,-0.74019 -2.073128,-0.76693 -1.960003,-0.40855 0.139378,0.44156 1.596516,1.28319 2.909025,1.68021 0.601212,0.18187 2.814767,0.5516 4.919012,0.82164 2.104244,0.27003 4.168886,0.60807 4.588094,0.75118 0.916202,0.31278 1.18631,1.05859 0.383387,1.05859 -0.289382,0 -0.567143,-0.0426 -0.617242,-0.0946 z"
         id="path27389" /><path
         style="opacity:1;fill:#ffffff;fill-opacity:1;stroke:#4cb0f9;stroke-width:0;stroke-linecap:square;stroke-linejoin:round;stroke-dasharray:none;stroke-opacity:1"
         d="m 89.822702,133.33597 c -0.480972,-0.3753 -2.107139,-1.32891 -3.613709,-2.11913 -3.198123,-1.67746 -4.417934,-2.61798 -7.098806,-5.47342 -2.439783,-2.59865 -3.740797,-3.50641 -6.843744,-4.77511 -3.390204,-1.38615 -5.099486,-2.8237 -5.730861,-4.81978 -0.493443,-1.56001 0.359777,-2.33625 1.05242,-0.95746 0.855232,1.70243 1.751919,2.31027 4.767425,3.23165 3.977428,1.2153 5.858504,2.29396 8.39443,4.81358 2.858202,2.83982 3.494678,3.27074 7.744521,5.24331 1.31355,0.60968 2.853059,1.3737 3.421134,1.69784 l 1.032864,0.58932 -0.402646,0.51882 -0.402646,0.51882 -1.16019,-0.68035 c -0.638106,-0.3742 -2.312788,-1.19416 -3.72152,-1.82212 -2.849357,-1.27015 -4.511898,-2.30181 -5.971298,-3.7054 -1.069574,-1.02868 -1.211782,-0.98926 -0.537546,0.14901 0.625213,1.05551 2.398326,2.3986 4.807026,3.64124 2.561591,1.3215 5.684193,3.33415 5.684193,3.66369 0,0.13473 -0.122974,0.40762 -0.273279,0.60641 -0.244028,0.32276 -0.36689,0.28841 -1.147768,-0.32092 z"
         id="path27391" /><path
         style="opacity:1;fill:#ffffff;fill-opacity:1;stroke:#4cb0f9;stroke-width:0;stroke-linecap:square;stroke-linejoin:round;stroke-dasharray:none;stroke-opacity:1"
         d="m 82.716233,119.53492 c -5.710844,-6.09415 -10.416556,-11.28514 -10.457137,-11.53557 -0.09466,-0.58417 0.368592,-0.88362 0.904239,-0.58452 0.229224,0.128 3.727026,3.27348 7.772888,6.98996 8.153631,7.48981 14.518932,13.322 14.667834,13.43935 0.05345,0.0421 -0.09412,0.27422 -0.327935,0.51577 -0.420221,0.43415 -0.483597,0.3854 -5.523202,-4.24855 -2.803958,-2.57827 -5.152383,-4.63112 -5.218721,-4.5619 -0.06634,0.0692 1.981858,2.34456 4.551549,5.05632 2.56969,2.71176 4.699151,5.00787 4.732136,5.10248 0.03298,0.0946 -0.115139,0.33737 -0.329161,0.53946 -0.365647,0.34526 -1.015894,-0.30138 -10.77249,-10.7128 z"
         id="path27393" /><path
         style="opacity:1;fill:#ffffff;fill-opacity:1;stroke:#4cb0f9;stroke-width:0;stroke-linecap:square;stroke-linejoin:round;stroke-dasharray:none;stroke-opacity:1"
         d="m 95.331428,126.4695 c -0.422136,-0.65157 -1.429844,-1.95454 -2.23935,-2.89548 -2.038691,-2.36971 -3.430916,-4.65781 -4.221888,-6.9386 -1.311847,-3.78275 -2.066854,-5.03275 -4.835649,-8.00597 -2.11067,-2.26649 -2.646184,-2.98386 -3.033252,-4.06328 -0.595876,-1.66172 -0.607183,-2.8991 -0.03296,-3.60655 0.428944,-0.52847 0.443222,-0.53026 0.765181,-0.0957 0.180442,0.24354 0.32808,0.79909 0.32808,1.23456 0,1.33407 0.891962,2.54914 3.302069,4.49825 3.260156,2.63656 4.749515,4.66984 6.002913,8.19519 0.807848,2.27218 1.670286,3.54259 4.571169,6.73352 1.085698,1.19425 2.329866,2.59885 2.764817,3.12134 l 0.79082,0.94997 -0.641163,0.27711 c -0.609347,0.26334 -0.675304,0.23297 -1.32924,-0.61217 -0.378443,-0.48908 -1.682047,-1.96707 -2.896892,-3.28438 -2.379916,-2.58068 -3.273769,-3.8179 -4.142386,-5.73365 l -0.554805,-1.22364 0.116336,0.98831 c 0.178847,1.51928 1.013449,2.99297 3.349521,5.91441 2.14526,2.68281 3.533182,4.64777 3.533182,5.00213 0,0.10406 -0.186521,0.31071 -0.414495,0.45926 -0.366852,0.23904 -0.502718,0.1339 -1.182017,-0.91459 z"
         id="path27395" /></g></g></svg>
