<?xml version="1.0" encoding="UTF-8" standalone="no"?>
<!-- Created with Inkscape (http://www.inkscape.org/) -->

<svg
   width="210mm"
   height="297mm"
   viewBox="0 0 210 297"
   version="1.1"
   id="svg3221"
   inkscape:version="1.2 (dc2aedaf03, 2022-05-15)"
   xml:space="preserve"
   sodipodi:docname="Jufica.svg"
   inkscape:export-filename="Jufica.png"
   inkscape:export-xdpi="96"
   inkscape:export-ydpi="96"
   xmlns:inkscape="http://www.inkscape.org/namespaces/inkscape"
   xmlns:sodipodi="http://sodipodi.sourceforge.net/DTD/sodipodi-0.dtd"
   xmlns="http://www.w3.org/2000/svg"
   xmlns:svg="http://www.w3.org/2000/svg"><sodipodi:namedview
     id="namedview3223"
     pagecolor="#ffffff"
     bordercolor="#000000"
     borderopacity="0.25"
     inkscape:showpageshadow="2"
     inkscape:pageopacity="0.0"
     inkscape:pagecheckerboard="0"
     inkscape:deskcolor="#d1d1d1"
     inkscape:document-units="mm"
     showgrid="false"
     inkscape:zoom="1.1"
     inkscape:cx="405.45455"
     inkscape:cy="633.63636"
     inkscape:window-width="1920"
     inkscape:window-height="1017"
     inkscape:window-x="-8"
     inkscape:window-y="-8"
     inkscape:window-maximized="1"
     inkscape:current-layer="layer1" /><defs
     id="defs3218"><inkscape:path-effect
       effect="bspline"
       id="path-effect40725"
       is_visible="true"
       lpeversion="1"
       weight="33.333333"
       steps="2"
       helper_size="0"
       apply_no_weight="true"
       apply_with_weight="true"
       only_selected="false" /><inkscape:path-effect
       effect="bspline"
       id="path-effect40658"
       is_visible="true"
       lpeversion="1"
       weight="33.333333"
       steps="2"
       helper_size="0"
       apply_no_weight="true"
       apply_with_weight="true"
       only_selected="false" /><inkscape:path-effect
       effect="bspline"
       id="path-effect39890"
       is_visible="true"
       lpeversion="1"
       weight="33.333333"
       steps="2"
       helper_size="0"
       apply_no_weight="true"
       apply_with_weight="true"
       only_selected="false" /><inkscape:path-effect
       effect="bspline"
       id="path-effect37188"
       is_visible="true"
       lpeversion="1"
       weight="33.333333"
       steps="2"
       helper_size="0"
       apply_no_weight="true"
       apply_with_weight="true"
       only_selected="false" /><inkscape:path-effect
       effect="bspline"
       id="path-effect37050"
       is_visible="true"
       lpeversion="1"
       weight="33.333333"
       steps="2"
       helper_size="0"
       apply_no_weight="true"
       apply_with_weight="true"
       only_selected="false" /><inkscape:path-effect
       effect="bspline"
       id="path-effect37046"
       is_visible="true"
       lpeversion="1"
       weight="33.333333"
       steps="2"
       helper_size="0"
       apply_no_weight="true"
       apply_with_weight="true"
       only_selected="false" /><inkscape:path-effect
       effect="bspline"
       id="path-effect36772"
       is_visible="true"
       lpeversion="1"
       weight="33.333333"
       steps="2"
       helper_size="0"
       apply_no_weight="true"
       apply_with_weight="true"
       only_selected="false" /><inkscape:path-effect
       effect="bspline"
       id="path-effect10020"
       is_visible="true"
       lpeversion="1"
       weight="33.333333"
       steps="2"
       helper_size="0"
       apply_no_weight="true"
       apply_with_weight="true"
       only_selected="false" /><inkscape:path-effect
       effect="bspline"
       id="path-effect10020-8"
       is_visible="true"
       lpeversion="1"
       weight="33.333333"
       steps="2"
       helper_size="0"
       apply_no_weight="true"
       apply_with_weight="true"
       only_selected="false" /><inkscape:path-effect
       effect="bspline"
       id="path-effect10020-7"
       is_visible="true"
       lpeversion="1"
       weight="33.333333"
       steps="2"
       helper_size="0"
       apply_no_weight="true"
       apply_with_weight="true"
       only_selected="false" /><inkscape:path-effect
       effect="bspline"
       id="path-effect10020-81"
       is_visible="true"
       lpeversion="1"
       weight="33.333333"
       steps="2"
       helper_size="0"
       apply_no_weight="true"
       apply_with_weight="true"
       only_selected="false" /><inkscape:path-effect
       effect="bspline"
       id="path-effect10020-81-1"
       is_visible="true"
       lpeversion="1"
       weight="33.333333"
       steps="2"
       helper_size="0"
       apply_no_weight="true"
       apply_with_weight="true"
       only_selected="false" /><inkscape:path-effect
       effect="bspline"
       id="path-effect10020-81-1-3"
       is_visible="true"
       lpeversion="1"
       weight="33.333333"
       steps="2"
       helper_size="0"
       apply_no_weight="true"
       apply_with_weight="true"
       only_selected="false" /><inkscape:path-effect
       effect="bspline"
       id="path-effect10020-81-7"
       is_visible="true"
       lpeversion="1"
       weight="33.333333"
       steps="2"
       helper_size="0"
       apply_no_weight="true"
       apply_with_weight="true"
       only_selected="false" /><inkscape:path-effect
       effect="bspline"
       id="path-effect10020-6"
       is_visible="true"
       lpeversion="1"
       weight="33.333333"
       steps="2"
       helper_size="0"
       apply_no_weight="true"
       apply_with_weight="true"
       only_selected="false" /><inkscape:path-effect
       effect="bspline"
       id="path-effect10020-81-1-3-0"
       is_visible="true"
       lpeversion="1"
       weight="33.333333"
       steps="2"
       helper_size="0"
       apply_no_weight="true"
       apply_with_weight="true"
       only_selected="false" /><inkscape:path-effect
       effect="bspline"
       id="path-effect10020-81-7-8"
       is_visible="true"
       lpeversion="1"
       weight="33.333333"
       steps="2"
       helper_size="0"
       apply_no_weight="true"
       apply_with_weight="true"
       only_selected="false" /><inkscape:path-effect
       effect="bspline"
       id="path-effect10020-81-1-3-2"
       is_visible="true"
       lpeversion="1"
       weight="33.333333"
       steps="2"
       helper_size="0"
       apply_no_weight="true"
       apply_with_weight="true"
       only_selected="false" /><inkscape:path-effect
       effect="bspline"
       id="path-effect37050-0"
       is_visible="true"
       lpeversion="1"
       weight="33.333333"
       steps="2"
       helper_size="0"
       apply_no_weight="true"
       apply_with_weight="true"
       only_selected="false" /><inkscape:path-effect
       effect="bspline"
       id="path-effect37050-2"
       is_visible="true"
       lpeversion="1"
       weight="33.333333"
       steps="2"
       helper_size="0"
       apply_no_weight="true"
       apply_with_weight="true"
       only_selected="false" /><inkscape:path-effect
       effect="bspline"
       id="path-effect39890-4"
       is_visible="true"
       lpeversion="1"
       weight="33.333333"
       steps="2"
       helper_size="0"
       apply_no_weight="true"
       apply_with_weight="true"
       only_selected="false" /><inkscape:path-effect
       effect="bspline"
       id="path-effect40658-9"
       is_visible="true"
       lpeversion="1"
       weight="33.333333"
       steps="2"
       helper_size="0"
       apply_no_weight="true"
       apply_with_weight="true"
       only_selected="false" /><inkscape:path-effect
       effect="bspline"
       id="path-effect40725-6"
       is_visible="true"
       lpeversion="1"
       weight="33.333333"
       steps="2"
       helper_size="0"
       apply_no_weight="true"
       apply_with_weight="true"
       only_selected="false" /><inkscape:path-effect
       effect="bspline"
       id="path-effect40658-8"
       is_visible="true"
       lpeversion="1"
       weight="33.333333"
       steps="2"
       helper_size="0"
       apply_no_weight="true"
       apply_with_weight="true"
       only_selected="false" /><inkscape:path-effect
       effect="bspline"
       id="path-effect40725-5"
       is_visible="true"
       lpeversion="1"
       weight="33.333333"
       steps="2"
       helper_size="0"
       apply_no_weight="true"
       apply_with_weight="true"
       only_selected="false" /></defs><g
     inkscape:label="Laag 1"
     inkscape:groupmode="layer"
     id="layer1"
     transform="translate(-4.2903214,7.2742004)"><circle
       style="fill:#072a6c;fill-opacity:1;stroke:#c0c0c0;stroke-width:5;stroke-linecap:square;stroke-linejoin:round;stroke-dasharray:none;stroke-opacity:1"
       id="path7416"
       cx="109.29032"
       cy="141.2258"
       r="64.580643" /><path
       style="opacity:1;fill:#c0c0c0;fill-opacity:1;stroke:#c0c0c0;stroke-width:0;stroke-linecap:square;stroke-linejoin:round;stroke-opacity:1"
       d="m 105.88295,171.39755 c -3.32039,-0.25363 -5.85278,-0.90432 -6.720933,-1.72688 -0.600591,-0.56907 -0.725876,-1.23423 -0.3058,-1.62354 0.583452,-0.54073 2.180613,-1.1948 3.922543,-1.60634 0.4406,-0.10411 1.21664,-0.38613 1.72453,-0.62672 0.9828,-0.46553 2.30716,-1.27788 2.30716,-1.41515 0,-0.0454 -0.10983,-0.18576 -0.24408,-0.31186 -0.40151,-0.37722 -0.3296,-0.73014 0.33678,-1.65293 0.31948,-0.44239 0.65432,-0.99669 0.74409,-1.23174 0.15344,-0.40177 0.15289,-0.46562 -0.009,-1.06426 -0.13447,-0.49678 -0.16063,-0.85734 -0.11895,-1.63907 0.0294,-0.5512 0.10319,-1.12996 0.164,-1.28613 0.0986,-0.25312 0.0824,-0.31338 -0.14918,-0.55506 -0.35272,-0.36816 -0.33424,-0.7094 0.0605,-1.11665 l 0.32022,-0.33038 -0.35683,-0.39497 c -0.4565,-0.50529 -0.47496,-0.8771 -0.0639,-1.28812 0.28269,-0.28269 0.29293,-0.32411 0.29383,-1.18849 5.3e-4,-0.49257 0.0454,-1.85686 0.0997,-3.03176 l 0.0988,-2.13618 -0.29721,-0.46316 c -0.25881,-0.40332 -0.2836,-0.49896 -0.19184,-0.74031 0.0889,-0.23369 0.0657,-0.35557 -0.14771,-0.77737 -0.1392,-0.27512 -0.27929,-0.66161 -0.31129,-0.85885 -0.0748,-0.461 0.16608,-1.10183 0.56918,-1.51413 l 0.30537,-0.31234 -0.25819,-0.47438 c -0.3076,-0.56517 -0.3271,-1.02537 -0.0699,-1.65026 0.17688,-0.42979 0.1908,-0.80691 0.23014,-6.23823 l 0.0419,-5.78079 -0.20573,-0.18511 c -0.11315,-0.1018 -0.35033,-0.26788 -0.52706,-0.36905 -0.41034,-0.23492 -0.49792,-0.55917 -0.24371,-0.90226 0.197,-0.26586 0.89912,-0.84324 1.11152,-0.91404 0.0761,-0.0254 -0.008,-0.22309 -0.23763,-0.55647 -0.53399,-0.77628 -0.76322,-1.61957 -0.76164,-2.80197 l 10e-4,-0.98589 -0.75059,-0.78793 c -0.80124,-0.84111 -1.527,-1.28064 -2.86958,-1.73786 -1.35007,-0.45977 -2.16775,-0.57748 -3.983012,-0.5734 -1.517547,0.003 -1.839548,0.0344 -2.880151,0.27666 -0.644374,0.15004 -2.182082,0.63754 -3.417128,1.08333 -3.268594,1.17981 -4.044286,1.36021 -5.857933,1.3624 -1.653313,0.002 -2.258881,-0.11727 -3.4489,-0.67932 l -0.715195,-0.33778 -0.358759,0.28403 c -0.197316,0.15622 -0.549151,0.33405 -0.781854,0.39518 -0.312944,0.0822 -0.408401,0.14943 -0.366649,0.25823 0.07685,0.20028 1.241411,4.02114 4.206827,13.8024 2.290731,7.55584 3.126833,10.30888 5.174131,17.03682 0.392163,1.28874 0.943062,3.11203 1.224222,4.05174 0.281159,0.93971 0.521017,1.72066 0.533013,1.73546 0.01199,0.0148 0.412443,0.0932 0.889881,0.17432 1.218684,0.20698 1.19461,0.19113 0.848101,0.55855 -0.162962,0.1728 -0.41008,0.51271 -0.549145,0.75536 -0.362297,0.63214 -0.722347,0.96629 -1.553724,1.44193 -1.318765,0.75451 -3.198603,1.26891 -5.394846,1.47632 -5.684234,0.53673 -11.238484,0.27879 -14.666841,-0.68114 -1.669002,-0.46731 -2.945037,-1.30789 -3.340563,-2.20055 -0.09771,-0.22052 -0.35865,-0.5464 -0.57986,-0.72417 -0.221213,-0.17777 -0.402207,-0.37478 -0.402207,-0.43779 0,-0.11575 0.48868,-0.24539 1.672606,-0.44373 l 0.647467,-0.10847 0.244406,-0.84627 c 0.134425,-0.46545 0.975845,-3.32857 1.869824,-6.36249 0.893979,-3.03393 2.045068,-6.94409 2.557971,-8.68927 0.512905,-1.74518 1.275984,-4.33731 1.69573,-5.7603 0.419748,-1.42299 1.188659,-4.03709 1.708692,-5.80912 0.520034,-1.77202 1.337128,-4.54577 1.81577,-6.16389 0.478639,-1.61811 0.870254,-2.96361 0.870254,-2.98999 0,-0.0264 -0.12082,-0.0722 -0.268489,-0.10191 -0.404725,-0.0813 -0.909725,-0.46062 -1.241184,-0.93222 -0.264348,-0.37612 -0.296243,-0.4978 -0.293947,-1.12133 0.0016,-0.45668 0.05784,-0.80178 0.16179,-0.99435 1.048745,-1.94267 3.898969,-1.42917 4.165693,0.7505 l 0.06339,0.51803 0.683424,0.16425 c 0.413078,0.0993 1.115388,0.1674 1.775405,0.17221 1.720694,0.0126 2.780786,-0.26035 6.414084,-1.65125 4.540417,-1.73815 6.712839,-2.19706 9.228016,-1.94933 1.27134,0.12521 1.5336,0.19887 4.51321,1.26761 1.63629,0.5869 2.1918,0.7491 2.25027,0.65702 0.1223,-0.19262 0.0936,-0.89092 -0.0539,-1.30877 -0.074,-0.20965 -0.41863,-0.81927 -0.76592,-1.35472 -0.71997,-1.11004 -0.92724,-1.58506 -1.01409,-2.32405 -0.0907,-0.77197 0.08,-1.37682 0.92527,-3.27808 0.41998,-0.94463 0.99947,-2.32161 1.28776,-3.05995 0.28829,-0.73835 0.54774,-1.34114 0.57656,-1.33954 0.0288,0.002 0.31313,0.6057 0.63179,1.34245 0.31866,0.73674 0.87563,1.98123 1.23772,2.76553 0.84373,1.82754 1.1038,2.6703 1.09652,3.55324 -0.007,0.86277 -0.11323,1.10629 -1.13809,2.61221 -0.45838,0.67353 -0.88039,1.39378 -0.93781,1.60056 -0.12709,0.4577 -0.1365,0.91293 -0.0189,0.91293 0.0476,0 0.45403,-0.19317 0.90309,-0.42926 2.45833,-1.29244 4.77556,-1.83314 6.9664,-1.62556 1.9445,0.18424 2.82752,0.43541 6.20057,1.7637 2.50801,0.98764 3.56575,1.31611 4.88161,1.51596 1.23457,0.18749 1.46808,0.18047 3.13976,-0.0944 1.62185,-0.2667 1.83948,-0.34933 1.83948,-0.69839 0,-0.37752 0.34215,-0.96119 0.7863,-1.34137 1.40658,-1.20397 3.56408,-0.18054 3.55139,1.68464 -0.006,0.93301 -0.64594,1.80979 -1.50878,2.0683 -0.21791,0.0653 -0.37812,0.16613 -0.35601,0.22408 0.0221,0.058 0.50534,1.64308 1.07387,3.5225 1.10932,3.66716 1.83081,6.04422 3.63008,11.95995 0.62879,2.06736 1.52961,5.03294 2.00182,6.59018 0.47221,1.55723 1.23159,4.0615 1.68751,5.56503 0.45593,1.50354 1.25457,4.13961 1.77476,5.85794 0.5202,1.71832 0.97832,3.15811 1.01806,3.19953 0.0397,0.0414 0.44256,0.1426 0.89517,0.22486 1.16383,0.21151 1.14016,0.19736 0.85036,0.50819 -0.1362,0.14608 -0.432,0.56106 -0.65732,0.92218 -0.33729,0.54054 -0.5335,0.73371 -1.11031,1.09307 -1.78068,1.10942 -3.4962,1.54609 -7.19317,1.83089 -2.48501,0.19145 -7.14987,0.16457 -8.93335,-0.0515 -1.87503,-0.22715 -3.82835,-0.5851 -4.63753,-0.84987 -1.44958,-0.47429 -2.57393,-1.24764 -2.98053,-2.05002 -0.13146,-0.25942 -0.41527,-0.61332 -0.6307,-0.78645 -0.21543,-0.17312 -0.39169,-0.36632 -0.39169,-0.42934 0,-0.11576 0.48863,-0.24537 1.67335,-0.44386 l 0.64822,-0.10859 0.51298,-1.72483 c 0.28213,-0.94866 0.74375,-2.51566 1.02582,-3.48221 0.5222,-1.78941 2.69418,-9.17394 4.43664,-15.08418 0.53035,-1.79888 1.34432,-4.56675 1.80882,-6.15083 0.4645,-1.58409 1.18906,-4.04442 1.61013,-5.46741 1.11715,-3.77541 1.38213,-4.70464 1.34824,-4.72794 -0.0167,-0.0114 -0.20894,-0.072 -0.42728,-0.1346 -0.21834,-0.0626 -0.56825,-0.26183 -0.77758,-0.44278 l -0.3806,-0.32901 -0.65364,0.26954 c -1.4476,0.59694 -3.44458,0.93712 -4.91835,0.83782 -1.15158,-0.0776 -2.5721,-0.4094 -4.84147,-1.13088 -3.40046,-1.08109 -4.76359,-1.33866 -6.5815,-1.24361 -1.1342,0.0593 -2.23606,0.30488 -3.11803,0.69493 -0.35377,0.15645 -0.90448,0.58002 -1.65913,1.27607 l -1.12959,1.04188 v 0.71885 c 0,0.91796 -0.3445,2.03849 -0.88274,2.87126 -0.21817,0.33755 -0.38339,0.62507 -0.36717,0.63895 0.0162,0.0139 0.17492,0.0992 0.35264,0.18961 0.58254,0.29634 1.09253,0.8301 1.09253,1.14342 0,0.23195 -0.0801,0.33234 -0.43758,0.54826 -0.24067,0.14537 -0.46792,0.33101 -0.50498,0.41253 -0.0371,0.0815 -0.0864,2.73139 -0.10957,5.88859 l -0.0422,5.74037 0.24507,0.36165 c 0.44267,0.65324 0.42894,1.41128 -0.0331,1.82945 -0.26006,0.23535 -0.24509,0.28753 0.14924,0.52019 0.88763,0.52372 1.06725,1.79446 0.38322,2.71114 -0.22604,0.30291 -0.22637,0.30727 -0.0367,0.47889 0.24442,0.22119 0.2437,0.53824 -0.002,0.85051 -0.36931,0.4695 -0.40986,0.77471 -0.48271,3.63282 l -0.0721,2.8271 0.28482,0.23966 c 0.41293,0.34746 0.49846,0.64145 0.30513,1.04886 -0.0877,0.18491 -0.26379,0.4182 -0.39123,0.51844 -0.26626,0.20944 -0.29472,0.35315 -0.0858,0.43332 0.19624,0.0753 0.53672,0.64738 0.53717,0.90257 1.9e-4,0.11298 -0.10712,0.32139 -0.23849,0.46314 l -0.23886,0.25774 0.20843,0.46435 c 0.26903,0.59937 0.28286,1.85339 0.0301,2.73004 -0.23955,0.83087 -0.15757,1.14808 0.53391,2.06576 0.84926,1.12704 0.9246,1.38755 0.53513,1.85041 -0.13425,0.15955 -0.24408,0.31496 -0.24408,0.34542 0,0.10607 1.61633,1.00578 2.36201,1.31479 0.4131,0.17119 1.13802,0.40312 1.61094,0.51538 2.07707,0.49313 3.66956,1.17504 4.22712,1.81004 1.29362,1.47336 -1.56206,2.87335 -6.83322,3.35003 -1.29923,0.11747 -6.08994,0.11287 -7.66413,-0.007 z M 92.208053,157.52558 c -0.0376,-0.11846 -0.320286,-1.05207 -0.6282,-2.07469 -0.307912,-1.02262 -1.053978,-3.48488 -1.657922,-5.4717 -0.603945,-1.98681 -1.417473,-4.66682 -1.807839,-5.95556 -0.390366,-1.28875 -1.224915,-4.03466 -1.854555,-6.10202 -0.629642,-2.06736 -1.530699,-5.03294 -2.002353,-6.59017 -0.471652,-1.55724 -1.219346,-4.01757 -1.661539,-5.46741 -0.442192,-1.44984 -0.847497,-2.80021 -0.900676,-3.00082 -0.05318,-0.20062 -0.135432,-0.34082 -0.18279,-0.31155 -0.04919,0.0304 -0.0861,7.41375 -0.0861,17.2211 v 17.16787 l 1.14718,0.0614 c 4.273233,0.22877 7.034102,0.43785 8.42078,0.6377 0.295336,0.0426 0.704692,0.0828 0.909678,0.0893 0.341897,0.0109 0.367048,-0.006 0.304339,-0.20347 z m 55.192187,-0.0531 c -0.0264,-0.094 -0.47591,-1.57676 -0.99892,-3.29509 -0.52302,-1.71833 -1.27077,-4.17866 -1.66167,-5.46741 -0.39091,-1.28874 -1.22532,-4.03465 -1.85425,-6.10201 -1.86761,-6.13899 -3.80775,-12.53347 -5.12468,-16.89038 -0.49504,-1.63778 -0.93806,-3.04368 -0.98447,-3.12423 -0.0483,-0.0837 -0.0857,2.04856 -0.0874,4.97925 -0.002,2.81913 -0.0322,10.55728 -0.0679,17.19589 l -0.0649,12.07021 1.3097,0.0649 c 2.70788,0.13426 5.94794,0.37134 7.3629,0.53876 2.03031,0.24023 2.23132,0.24301 2.17151,0.0301 z m -73.93119,-0.1671 c 1.557139,-0.13191 5.875602,-0.34184 7.086727,-0.3445 l 0.447733,-0.001 0.06783,-17.10217 c 0.03731,-9.40619 0.03094,-17.13906 -0.01416,-17.18415 -0.04509,-0.0451 -0.820502,2.43366 -1.723131,5.50834 -0.902626,3.07468 -2.004412,6.82049 -2.448409,8.32403 -0.443997,1.50354 -1.233228,4.18354 -1.753846,5.95557 -0.520618,1.77202 -1.334939,4.53989 -1.809604,6.15083 -0.474668,1.61093 -0.905434,3.08274 -0.95726,3.27068 -0.173596,0.62951 -1.585836,5.367 -1.648854,5.53122 -0.05492,0.14312 -9.3e-5,0.155 0.46668,0.10109 0.290898,-0.0336 1.319731,-0.12808 2.286288,-0.20996 z m 55.06941,-0.10033 c 0.86182,-0.0758 2.92674,-0.18952 4.58871,-0.25271 1.66197,-0.0632 3.0308,-0.122 3.04185,-0.1307 0.0451,-0.0355 0.0738,-34.32588 0.0287,-34.3251 -0.0268,5.3e-4 -0.50422,1.54916 -1.06083,3.44155 -0.55661,1.89239 -1.35473,4.60497 -1.77359,6.02796 -2.11102,7.1717 -2.58735,8.79099 -3.46069,11.76468 -1.02632,3.4946 -2.31907,7.88505 -3.27723,11.13007 -0.33296,1.12765 -0.64254,2.17699 -0.68796,2.33185 l -0.0826,0.28157 0.55833,-0.0657 c 0.30707,-0.0361 1.26344,-0.12769 2.12527,-0.20349 z"
       id="path44249" /></g></svg>
