<?xml version="1.0" encoding="UTF-8" standalone="no"?>
<!-- Created with Inkscape (http://www.inkscape.org/) -->

<svg
   width="134.16129mm"
   height="134.16129mm"
   viewBox="0 0 134.16129 134.16129"
   version="1.1"
   id="svg3221"
   inkscape:version="1.2 (dc2aedaf03, 2022-05-15)"
   xml:space="preserve"
   sodipodi:docname="Lances of Siez.svg"
   inkscape:export-filename="Lances of Siez.png"
   inkscape:export-xdpi="96"
   inkscape:export-ydpi="96"
   xmlns:inkscape="http://www.inkscape.org/namespaces/inkscape"
   xmlns:sodipodi="http://sodipodi.sourceforge.net/DTD/sodipodi-0.dtd"
   xmlns="http://www.w3.org/2000/svg"
   xmlns:svg="http://www.w3.org/2000/svg"><sodipodi:namedview
     id="namedview3223"
     pagecolor="#ffffff"
     bordercolor="#000000"
     borderopacity="0.25"
     inkscape:showpageshadow="2"
     inkscape:pageopacity="0.0"
     inkscape:pagecheckerboard="0"
     inkscape:deskcolor="#d1d1d1"
     inkscape:document-units="mm"
     showgrid="false"
     inkscape:zoom="1.42"
     inkscape:rotation="1"
     inkscape:cx="370.39869"
     inkscape:cy="600.66939"
     inkscape:window-width="1920"
     inkscape:window-height="1017"
     inkscape:window-x="-8"
     inkscape:window-y="-8"
     inkscape:window-maximized="1"
     inkscape:current-layer="layer1" /><defs
     id="defs3218"><marker
       style="overflow:visible"
       id="Arrow5"
       refX="0"
       refY="0"
       orient="auto-start-reverse"
       inkscape:stockid="Arrow5"
       markerWidth="3"
       markerHeight="3"
       viewBox="0 0 5.8874262 6.6094758"
       inkscape:isstock="true"
       inkscape:collect="always"
       preserveAspectRatio="xMidYMid"><path
         transform="scale(0.5)"
         style="fill:context-stroke;fill-rule:evenodd;stroke:context-stroke;stroke-width:1pt"
         d="m 6,0 c -3,1 -7,3 -9,5 0,0 0,-4 2,-5 -2,-1 -2,-5 -2,-5 2,2 6,4 9,5 z"
         id="path8893" /></marker><inkscape:path-effect
       effect="bspline"
       id="path-effect10020"
       is_visible="true"
       lpeversion="1"
       weight="33.333333"
       steps="2"
       helper_size="0"
       apply_no_weight="true"
       apply_with_weight="true"
       only_selected="false" /><marker
       style="overflow:visible"
       id="Arrow5-1-6-9-8"
       refX="0"
       refY="0"
       orient="auto-start-reverse"
       inkscape:stockid="Arrow5"
       markerWidth="3"
       markerHeight="3"
       viewBox="0 0 5.8874262 6.6094758"
       inkscape:isstock="true"
       inkscape:collect="always"
       preserveAspectRatio="xMidYMid"><path
         transform="scale(0.5)"
         style="fill:context-stroke;fill-rule:evenodd;stroke:context-stroke;stroke-width:1pt"
         d="m 6,0 c -3,1 -7,3 -9,5 0,0 0,-4 2,-5 -2,-1 -2,-5 -2,-5 2,2 6,4 9,5 z"
         id="path8893-9-3-4-9" /></marker><inkscape:path-effect
       effect="bspline"
       id="path-effect10020-81-1-3-0"
       is_visible="true"
       lpeversion="1"
       weight="33.333333"
       steps="2"
       helper_size="0"
       apply_no_weight="true"
       apply_with_weight="true"
       only_selected="false" /><marker
       style="overflow:visible"
       id="Arrow5-1-3-0"
       refX="0"
       refY="0"
       orient="auto-start-reverse"
       inkscape:stockid="Arrow5"
       markerWidth="3"
       markerHeight="3"
       viewBox="0 0 5.8874262 6.6094758"
       inkscape:isstock="true"
       inkscape:collect="always"
       preserveAspectRatio="xMidYMid"><path
         transform="scale(0.5)"
         style="fill:context-stroke;fill-rule:evenodd;stroke:context-stroke;stroke-width:1pt"
         d="m 6,0 c -3,1 -7,3 -9,5 0,0 0,-4 2,-5 -2,-1 -2,-5 -2,-5 2,2 6,4 9,5 z"
         id="path8893-9-2-7" /></marker><inkscape:path-effect
       effect="bspline"
       id="path-effect10020-81-7-8"
       is_visible="true"
       lpeversion="1"
       weight="33.333333"
       steps="2"
       helper_size="0"
       apply_no_weight="true"
       apply_with_weight="true"
       only_selected="false" /><marker
       style="overflow:visible"
       id="Arrow5-1-6-9-0"
       refX="0"
       refY="0"
       orient="auto-start-reverse"
       inkscape:stockid="Arrow5"
       markerWidth="3"
       markerHeight="3"
       viewBox="0 0 5.8874262 6.6094758"
       inkscape:isstock="true"
       inkscape:collect="always"
       preserveAspectRatio="xMidYMid"><path
         transform="scale(0.5)"
         style="fill:context-stroke;fill-rule:evenodd;stroke:context-stroke;stroke-width:1pt"
         d="m 6,0 c -3,1 -7,3 -9,5 0,0 0,-4 2,-5 -2,-1 -2,-5 -2,-5 2,2 6,4 9,5 z"
         id="path8893-9-3-4-2" /></marker><inkscape:path-effect
       effect="bspline"
       id="path-effect10020-81-1-3-2"
       is_visible="true"
       lpeversion="1"
       weight="33.333333"
       steps="2"
       helper_size="0"
       apply_no_weight="true"
       apply_with_weight="true"
       only_selected="false" /><marker
       style="overflow:visible"
       id="Arrow5-1-6-9-0-5"
       refX="0"
       refY="0"
       orient="auto-start-reverse"
       inkscape:stockid="Arrow5"
       markerWidth="3"
       markerHeight="3"
       viewBox="0 0 5.8874262 6.6094758"
       inkscape:isstock="true"
       inkscape:collect="always"
       preserveAspectRatio="xMidYMid"><path
         transform="scale(0.5)"
         style="fill:context-stroke;fill-rule:evenodd;stroke:context-stroke;stroke-width:1pt"
         d="m 6,0 c -3,1 -7,3 -9,5 0,0 0,-4 2,-5 -2,-1 -2,-5 -2,-5 2,2 6,4 9,5 z"
         id="path8893-9-3-4-2-8" /></marker><inkscape:path-effect
       effect="bspline"
       id="path-effect10020-81-1-3-2-6"
       is_visible="true"
       lpeversion="1"
       weight="33.333333"
       steps="2"
       helper_size="0"
       apply_no_weight="true"
       apply_with_weight="true"
       only_selected="false" /><marker
       style="overflow:visible"
       id="Arrow5-1-3-0-3"
       refX="0"
       refY="0"
       orient="auto-start-reverse"
       inkscape:stockid="Arrow5"
       markerWidth="3"
       markerHeight="3"
       viewBox="0 0 5.8874262 6.6094758"
       inkscape:isstock="true"
       inkscape:collect="always"
       preserveAspectRatio="xMidYMid"><path
         transform="scale(0.5)"
         style="fill:context-stroke;fill-rule:evenodd;stroke:context-stroke;stroke-width:1pt"
         d="m 6,0 c -3,1 -7,3 -9,5 0,0 0,-4 2,-5 -2,-1 -2,-5 -2,-5 2,2 6,4 9,5 z"
         id="path8893-9-2-7-2" /></marker><inkscape:path-effect
       effect="bspline"
       id="path-effect10020-81-7-8-8"
       is_visible="true"
       lpeversion="1"
       weight="33.333333"
       steps="2"
       helper_size="0"
       apply_no_weight="true"
       apply_with_weight="true"
       only_selected="false" /><marker
       style="overflow:visible"
       id="Arrow5-3"
       refX="0"
       refY="0"
       orient="auto-start-reverse"
       inkscape:stockid="Arrow5"
       markerWidth="3"
       markerHeight="3"
       viewBox="0 0 5.8874262 6.6094758"
       inkscape:isstock="true"
       inkscape:collect="always"
       preserveAspectRatio="xMidYMid"><path
         transform="scale(0.5)"
         style="fill:context-stroke;fill-rule:evenodd;stroke:context-stroke;stroke-width:1pt"
         d="m 6,0 c -3,1 -7,3 -9,5 0,0 0,-4 2,-5 -2,-1 -2,-5 -2,-5 2,2 6,4 9,5 z"
         id="path8893-7" /></marker><inkscape:path-effect
       effect="bspline"
       id="path-effect10020-5"
       is_visible="true"
       lpeversion="1"
       weight="33.333333"
       steps="2"
       helper_size="0"
       apply_no_weight="true"
       apply_with_weight="true"
       only_selected="false" /></defs><g
     inkscape:label="Laag 1"
     inkscape:groupmode="layer"
     id="layer1"
     transform="translate(-42.20968,-74.145162)"><circle
       style="fill:#ffbf00;fill-opacity:1;stroke:#323232;stroke-width:5;stroke-linecap:square;stroke-linejoin:round;stroke-dasharray:none;stroke-opacity:1"
       id="path7416"
       cx="109.29032"
       cy="141.2258"
       r="64.580643" /><g
       id="g644"
       transform="translate(1.3242831,-0.00566579)"><path
         style="fill:#ffbf00;fill-opacity:1;stroke:#323232;stroke-width:3;stroke-linecap:square;stroke-linejoin:round;stroke-dasharray:none;stroke-opacity:1;marker-end:url(#Arrow5)"
         d="m 104.91106,151.48348 c -16.153347,-0.10545 -32.307011,-0.2109 -48.460978,-0.31636"
         id="path10018"
         sodipodi:nodetypes="cc"
         inkscape:original-d="M 104.91106,151.48348 C 88.757712,151.37825 72.604047,151.27281 56.450082,151.16712"
         inkscape:path-effect="#path-effect10020" /><path
         style="fill:#ffbf00;fill-opacity:1;stroke:#323232;stroke-width:3;stroke-linecap:square;stroke-linejoin:round;stroke-dasharray:none;stroke-opacity:1;marker-end:url(#Arrow5-1-3-0)"
         d="M 109.3204,151.4421 C 94.28243,143.47452 79.244091,135.50675 64.205452,127.53882"
         id="path10018-3-7-7"
         sodipodi:nodetypes="cc"
         inkscape:original-d="M 109.3204,151.4421 C 94.282262,143.47484 79.243922,135.50707 64.205452,127.53882"
         inkscape:path-effect="#path-effect10020-81-7-8" /><path
         style="fill:#ffbf00;fill-opacity:1;stroke:#323232;stroke-width:3;stroke-linecap:square;stroke-linejoin:round;stroke-dasharray:none;stroke-opacity:1;marker-end:url(#Arrow5-1-6-9-0)"
         d="M 110.12388,150.954 C 100.45367,137.47149 90.78321,123.98863 81.112532,110.50546"
         id="path10018-3-8-0-7"
         sodipodi:nodetypes="cc"
         inkscape:original-d="M 110.12388,150.954 C 100.45337,137.4717 90.782912,123.98884 81.112532,110.50546"
         inkscape:path-effect="#path-effect10020-81-1-3-2" /></g><g
       id="g597"
       transform="translate(-1.142785,0.96442989)"><g
         id="g691"><path
           style="fill:#ffbf00;fill-opacity:1;stroke:#323232;stroke-width:3;stroke-linecap:square;stroke-linejoin:round;stroke-dasharray:none;stroke-opacity:1;marker-end:url(#Arrow5-3)"
           d="m 112.89861,150.50973 c 16.15334,-0.10545 32.30701,-0.2109 48.46098,-0.31636"
           id="path10018-1"
           sodipodi:nodetypes="cc"
           inkscape:original-d="m 112.89861,150.50973 c 16.15334,-0.10523 32.30701,-0.21067 48.46098,-0.31636"
           inkscape:path-effect="#path-effect10020-5" /><path
           style="fill:#ffbf00;fill-opacity:1;stroke:#323232;stroke-width:3;stroke-linecap:square;stroke-linejoin:round;stroke-dasharray:none;stroke-opacity:1;marker-end:url(#Arrow5-1-3-0-3)"
           d="m 108.48927,150.46835 c 15.03796,-7.96757 30.0763,-15.93535 45.11494,-23.90328"
           id="path10018-3-7-7-9"
           sodipodi:nodetypes="cc"
           inkscape:original-d="m 108.48927,150.46835 c 15.03813,-7.96726 30.07647,-15.93503 45.11494,-23.90328"
           inkscape:path-effect="#path-effect10020-81-7-8-8" /><path
           style="fill:#ffbf00;fill-opacity:1;stroke:#323232;stroke-width:3;stroke-linecap:square;stroke-linejoin:round;stroke-dasharray:none;stroke-opacity:1;marker-end:url(#Arrow5-1-6-9-0-5)"
           d="m 107.68579,149.98025 c 9.67021,-13.48252 19.34066,-26.96537 29.01134,-40.44854"
           id="path10018-3-8-0-7-1"
           sodipodi:nodetypes="cc"
           inkscape:original-d="m 107.68579,149.98025 c 9.67051,-13.4823 19.34096,-26.96516 29.01134,-40.44854"
           inkscape:path-effect="#path-effect10020-81-1-3-2-6" /></g></g><path
       style="fill:#ffbf00;fill-opacity:1;stroke:#323232;stroke-width:3;stroke-linecap:square;stroke-linejoin:round;stroke-dasharray:none;stroke-opacity:1;marker-end:url(#Arrow5-1-6-9-8)"
       d="m 109.09919,150.54901 c -0.11652,-16.15325 -0.23304,-32.30685 -0.34957,-48.46073"
       id="path10018-3-8-0-8"
       sodipodi:nodetypes="cc"
       inkscape:original-d="m 109.09919,150.54901 c -0.1163,-16.15325 -0.23281,-32.30685 -0.34957,-48.46073"
       inkscape:path-effect="#path-effect10020-81-1-3-0" /><path
       id="path14058"
       style="fill:#ffbf00;fill-opacity:1;stroke:#323232;stroke-width:3;stroke-linecap:square;stroke-linejoin:round;stroke-dasharray:none;stroke-opacity:1"
       d="m 135.73732,153.59224 c -1.3e-4,-14.40556 -11.45417,-26.55171 -25.85973,-26.55184 h -4e-5 c -14.405764,-1.5e-4 -26.084063,11.67791 -26.084197,26.08368"
       sodipodi:nodetypes="cssc" /><path
       style="fill:#323232;fill-opacity:1;stroke:#323232;stroke-width:0;stroke-linecap:square;stroke-linejoin:round;stroke-dasharray:none;stroke-opacity:1"
       d="m 102.90389,184.88084 c -2.63529,-1.72273 -5.376043,-4.07736 -7.352671,-6.31685 -1.423058,-1.61226 -3.25919,-4.68281 -3.787819,-6.33431 -0.232712,-0.72701 -0.224722,-0.79192 0.225681,-1.83321 0.866818,-2.004 1.115018,-4.83109 0.576361,-6.56494 -0.217115,-0.69886 -0.470795,-1.06099 -1.248709,-1.78256 -0.536933,-0.49804 -0.978324,-1.02479 -0.980866,-1.17056 -0.006,-0.34421 0.264509,-0.8853 0.677137,-1.3544 0.318783,-0.36241 0.325078,-0.51861 0.203015,-5.03769 -0.116541,-4.3147 -0.10182,-4.76565 0.196731,-6.02636 1.030835,-4.35296 3.299973,-8.0208 6.517015,-10.53413 1.587805,-1.24047 3.155905,-2.07304 5.671125,-3.01101 2.30452,-0.8594 4.19691,-1.82433 4.98711,-2.54294 l 0.57464,-0.52258 -0.03,3.79817 c -0.0415,5.26317 -0.0347,30.51967 0.009,33.01877 0.0297,1.69877 -0.003,2.02445 -0.1917,1.91994 -0.12508,-0.0692 -0.88624,-0.73533 -1.69146,-1.48024 l -1.46405,-1.35438 0.34922,-1.30487 c 0.72415,-2.70586 0.99583,-5.91758 0.58674,-6.93625 -0.13653,-0.33996 -0.36932,-0.48248 -1.11977,-0.68556 -2.26897,-0.614 -7.673009,-2.91075 -10.214927,-4.3414 l -0.745916,-0.41983 -0.07567,1.73214 c -0.04162,0.95268 -0.0683,2.15435 -0.05929,2.67038 l 0.01638,0.93824 4.683308,2.48087 4.683315,2.48088 -0.0873,0.49318 c -0.048,0.27125 -0.0932,2.75801 -0.10033,5.52613 -0.0117,4.50685 0.25111,10.53064 0.6192,14.19327 0.0628,0.62457 0.051,1.13323 -0.0262,1.13032 -0.0772,-0.003 -0.70686,-0.3756 -1.39922,-0.82822 z"
       id="path15899" /><path
       style="fill:#323232;fill-opacity:1;stroke:#323232;stroke-width:0;stroke-linecap:square;stroke-linejoin:round;stroke-dasharray:none;stroke-opacity:1"
       d="m 114.20914,185.42601 c 0.13401,-0.69903 0.57872,-7.71247 0.72421,-11.42132 0.0718,-1.83171 0.0674,-4.75384 -0.01,-6.49365 l -0.14058,-3.16329 4.60722,-2.46114 4.60721,-2.46115 -0.002,-2.67514 -0.002,-2.67515 -1.73326,0.90531 c -0.9533,0.49793 -2.56694,1.2756 -3.58588,1.72817 -1.87753,0.83393 -5.74872,2.23294 -6.20054,2.24083 -1.03972,0.0182 -1.06447,3.36271 -0.0536,7.24601 l 0.40314,1.5487 -0.58096,0.53914 c -1.45866,1.35367 -2.64776,2.38964 -2.69286,2.34608 -0.0272,-0.0262 -0.0446,-8.11423 -0.0387,-17.97337 0.006,-9.85915 -2e-5,-18.57098 -0.0131,-19.35963 l -0.0238,-1.43391 0.74727,0.63498 c 0.93353,0.79323 2.69617,1.66584 5.24374,2.59591 2.54023,0.92741 4.29926,1.97903 6.14082,3.67127 2.63348,2.41993 4.04463,4.69102 5.32396,8.56829 0.43522,1.31902 0.45465,1.51314 0.50274,5.02394 0.0275,2.00855 -0.0204,4.33669 -0.10636,5.17366 l -0.15638,1.52174 0.48738,0.58527 c 0.26807,0.32189 0.53654,0.81048 0.5966,1.08574 0.097,0.44468 0.0461,0.54103 -0.457,0.86422 -1.58892,1.02075 -2.08323,2.3576 -1.93101,5.22233 0.0832,1.56552 0.18185,2.09515 0.5771,3.09766 0.66728,1.69253 0.64321,2.01367 -0.29623,3.95155 -2.04577,4.22003 -6.09368,8.38163 -11.19807,11.51261 l -0.82528,0.50622 z"
       id="path15901" /></g></svg>
